<?xml version="1.0" encoding="utf-8"?>
<svg height="1080" version="1.1" width="1080" xmlns="http://www.w3.org/2000/svg">
<path d="M0 0 C356.4 0 712.8 0 1080 0 C1080 356.4 1080 712.8 1080 1080 C723.6 1080 367.2 1080 0 1080 C0 723.6 0 367.2 0 0 Z " fill="#FEFEFE" transform="translate(0,0)"/>
<path d="M0 0 C1.03769531 -0.01224609 2.07539063 -0.02449219 3.14453125 -0.03710938 C12.22431106 -0.05428424 19.58956506 1.03083325 27.6875 5.3125 C28.72003906 5.85132813 29.75257813 6.39015625 30.81640625 6.9453125 C31.57824219 7.35523438 32.34007812 7.76515625 33.125 8.1875 C33.125 8.8475 33.125 9.5075 33.125 10.1875 C33.785 10.1875 34.445 10.1875 35.125 10.1875 C35.125 10.8475 35.125 11.5075 35.125 12.1875 C35.785 12.1875 36.445 12.1875 37.125 12.1875 C37.125 13.5075 37.125 14.8275 37.125 16.1875 C37.785 16.1875 38.445 16.1875 39.125 16.1875 C39.125 17.1775 39.125 18.1675 39.125 19.1875 C39.785 19.1875 40.445 19.1875 41.125 19.1875 C41.125 20.5075 41.125 21.8275 41.125 23.1875 C42.775 23.8475 44.425 24.5075 46.125 25.1875 C46.125 25.8475 46.125 26.5075 46.125 27.1875 C47.26283432 27.18527939 48.40066864 27.18305878 49.57298279 27.18077087 C60.27130749 27.16054067 70.96962834 27.14552845 81.6679678 27.13568783 C87.16870862 27.13045869 92.66943405 27.12336049 98.17016602 27.11206055 C103.4739656 27.10123275 108.77775035 27.0952234 114.08156013 27.09262276 C116.10985612 27.09076831 118.13815126 27.08714733 120.16644096 27.08176994 C122.99696514 27.07456094 125.82742718 27.073509 128.65795898 27.07397461 C129.92894188 27.0685817 129.92894188 27.0685817 131.2256012 27.06307983 C137.01094784 27.07344784 137.01094784 27.07344784 138.125 28.1875 C139.9973827 28.34697739 141.87338408 28.46471108 143.75 28.5625 C148.82839885 28.94622789 152.51974847 29.92832 157.125 32.1875 C158.59937464 32.66102178 160.07898176 33.11845372 161.5625 33.5625 C166.13618286 35.04776815 170.39720687 37.10978524 174.125 40.1875 C174.125 40.8475 174.125 41.5075 174.125 42.1875 C175.115 42.1875 176.105 42.1875 177.125 42.1875 C177.125 42.8475 177.125 43.5075 177.125 44.1875 C178.115 44.1875 179.105 44.1875 180.125 44.1875 C180.125 44.8475 180.125 45.5075 180.125 46.1875 C181.775 46.8475 183.425 47.5075 185.125 48.1875 C185.125 48.8475 185.125 49.5075 185.125 50.1875 C185.785 50.1875 186.445 50.1875 187.125 50.1875 C187.125 50.8475 187.125 51.5075 187.125 52.1875 C187.785 52.1875 188.445 52.1875 189.125 52.1875 C189.125 52.8475 189.125 53.5075 189.125 54.1875 C189.785 54.1875 190.445 54.1875 191.125 54.1875 C191.125 55.5075 191.125 56.8275 191.125 58.1875 C191.785 58.1875 192.445 58.1875 193.125 58.1875 C193.125 59.1775 193.125 60.1675 193.125 61.1875 C193.785 61.1875 194.445 61.1875 195.125 61.1875 C195.125 62.5075 195.125 63.8275 195.125 65.1875 C195.785 65.1875 196.445 65.1875 197.125 65.1875 C201.71725513 74.59752278 201.71725513 74.59752278 201.125 79.1875 C202.115 79.1875 203.105 79.1875 204.125 79.1875 C204.269375 80.321875 204.41375 81.45625 204.5625 82.625 C204.73671478 85.99527201 204.73671478 85.99527201 206.125 87.1875 C206.21943335 89.48803835 206.24242128 91.79152173 206.23852539 94.09399414 C206.23867142 94.81590439 206.23881744 95.53781464 206.2389679 96.28160095 C206.23826869 98.67864947 206.23047595 101.07562123 206.22265625 103.47265625 C206.2207921 105.13032489 206.21936818 106.78799407 206.21836853 108.44566345 C206.21454312 112.81704214 206.20471265 117.18838781 206.19366455 121.55975342 C206.18345092 126.01704461 206.17887101 130.47434111 206.17382812 134.93164062 C206.1630904 143.68360893 206.14601371 152.43555036 206.125 161.1875 C205.465 161.1875 204.805 161.1875 204.125 161.1875 C204.228125 162.115625 204.33125 163.04375 204.4375 164 C204.47645466 168.7622074 202.37439303 172.53631649 200.31640625 176.734375 C199.03848154 179.23039283 199.03848154 179.23039283 198.125 182.1875 C197.135 182.1875 196.145 182.1875 195.125 182.1875 C195.125 183.5075 195.125 184.8275 195.125 186.1875 C194.465 186.1875 193.805 186.1875 193.125 186.1875 C192.9703125 187.0846875 192.9703125 187.0846875 192.8125 188 C192.02675967 190.50008286 191.15581147 191.56285082 189.125 193.1875 C188.465 193.1875 187.805 193.1875 187.125 193.1875 C186.8775 193.80625 186.63 194.425 186.375 195.0625 C184.91871361 197.53818687 183.74687494 198.13875002 181.125 199.1875 C181.125 199.8475 181.125 200.5075 181.125 201.1875 C180.465 201.1875 179.805 201.1875 179.125 201.1875 C179.125 201.8475 179.125 202.5075 179.125 203.1875 C178.135 203.1875 177.145 203.1875 176.125 203.1875 C176.125 203.8475 176.125 204.5075 176.125 205.1875 C175.135 205.1875 174.145 205.1875 173.125 205.1875 C172.795 206.1775 172.465 207.1675 172.125 208.1875 C169.39453125 209.72265625 169.39453125 209.72265625 165.9375 211.25 C164.80957031 211.75660156 163.68164062 212.26320313 162.51953125 212.78515625 C157.58236856 214.82478963 153.15731374 216.36880691 147.8125 216.75 C144.66326567 216.74752019 144.66326567 216.74752019 142.125 218.1875 C139.77186445 218.26021741 137.41666332 218.27120868 135.0625 218.25 C133.77214844 218.24097656 132.48179687 218.23195313 131.15234375 218.22265625 C129.65380859 218.20525391 129.65380859 218.20525391 128.125 218.1875 C128.125 218.8475 128.125 219.5075 128.125 220.1875 C127.05378906 220.24808594 125.98257813 220.30867187 124.87890625 220.37109375 C123.48175609 220.45548537 122.08462143 220.54013406 120.6875 220.625 C119.98044922 220.66431641 119.27339844 220.70363281 118.54492188 220.74414062 C115.03809581 220.66374438 115.03809581 220.66374438 112.125 222.1875 C109.28527465 222.51101301 106.44426263 222.7005429 103.59375 222.90625 C101.1836395 222.92135265 101.1836395 222.92135265 100.125 224.1875 C98.48392758 224.39589015 96.83643707 224.55501725 95.1875 224.6875 C91.51942535 224.93964943 91.51942535 224.93964943 88.125 226.1875 C85.57342345 226.2591735 83.05027029 226.28058442 80.5 226.25 C79.79359375 226.24548828 79.0871875 226.24097656 78.359375 226.23632812 C76.61454725 226.22453875 74.869763 226.20660324 73.125 226.1875 C73.125 226.8475 73.125 227.5075 73.125 228.1875 C72.22136719 228.35765625 71.31773437 228.5278125 70.38671875 228.703125 C69.20722656 228.94546875 68.02773438 229.1878125 66.8125 229.4375 C65.05486328 229.78554688 65.05486328 229.78554688 63.26171875 230.140625 C59.80739837 231.29349905 58.80433499 232.0154228 57.125 235.1875 C56.40018916 238.84024469 56.40018916 238.84024469 56.125 242.1875 C56.785 242.1875 57.445 242.1875 58.125 242.1875 C58.125 242.8475 58.125 243.5075 58.125 244.1875 C58.785 244.1875 59.445 244.1875 60.125 244.1875 C60.125 244.8475 60.125 245.5075 60.125 246.1875 C60.785 246.1875 61.445 246.1875 62.125 246.1875 C65.16895069 248.92705562 67.56896229 251.36813472 69.125 255.1875 C69.785 255.1875 70.445 255.1875 71.125 255.1875 C71.125 255.8475 71.125 256.5075 71.125 257.1875 C71.785 257.1875 72.445 257.1875 73.125 257.1875 C73.125 258.5075 73.125 259.8275 73.125 261.1875 C73.785 261.1875 74.445 261.1875 75.125 261.1875 C75.125 261.8475 75.125 262.5075 75.125 263.1875 C75.785 263.1875 76.445 263.1875 77.125 263.1875 C77.125 263.8475 77.125 264.5075 77.125 265.1875 C77.785 265.1875 78.445 265.1875 79.125 265.1875 C83.125 271.9375 83.125 271.9375 83.125 274.1875 C83.785 274.1875 84.445 274.1875 85.125 274.1875 C85.125 274.8475 85.125 275.5075 85.125 276.1875 C85.785 276.1875 86.445 276.1875 87.125 276.1875 C87.125 276.8475 87.125 277.5075 87.125 278.1875 C88.115 278.1875 89.105 278.1875 90.125 278.1875 C90.125 278.8475 90.125 279.5075 90.125 280.1875 C90.785 280.1875 91.445 280.1875 92.125 280.1875 C92.125 280.8475 92.125 281.5075 92.125 282.1875 C92.785 282.1875 93.445 282.1875 94.125 282.1875 C94.785 284.1675 95.445 286.1475 96.125 288.1875 C96.785 288.1875 97.445 288.1875 98.125 288.1875 C98.125 288.8475 98.125 289.5075 98.125 290.1875 C98.785 290.1875 99.445 290.1875 100.125 290.1875 C100.125 291.1775 100.125 292.1675 100.125 293.1875 C100.785 293.1875 101.445 293.1875 102.125 293.1875 C102.125 293.8475 102.125 294.5075 102.125 295.1875 C102.785 295.1875 103.445 295.1875 104.125 295.1875 C104.125 295.8475 104.125 296.5075 104.125 297.1875 C104.785 297.1875 105.445 297.1875 106.125 297.1875 C106.125 297.8475 106.125 298.5075 106.125 299.1875 C107.115 299.1875 108.105 299.1875 109.125 299.1875 C111.125 302.1875 111.125 302.1875 111.125 305.1875 C111.785 305.1875 112.445 305.1875 113.125 305.1875 C113.125 305.8475 113.125 306.5075 113.125 307.1875 C113.785 307.1875 114.445 307.1875 115.125 307.1875 C115.125 307.8475 115.125 308.5075 115.125 309.1875 C115.785 309.1875 116.445 309.1875 117.125 309.1875 C117.125 310.1775 117.125 311.1675 117.125 312.1875 C117.785 312.1875 118.445 312.1875 119.125 312.1875 C119.125 312.8475 119.125 313.5075 119.125 314.1875 C119.785 314.1875 120.445 314.1875 121.125 314.1875 C121.125 314.8475 121.125 315.5075 121.125 316.1875 C121.785 316.1875 122.445 316.1875 123.125 316.1875 C123.125 316.8475 123.125 317.5075 123.125 318.1875 C123.785 318.1875 124.445 318.1875 125.125 318.1875 C125.125 318.8475 125.125 319.5075 125.125 320.1875 C126.115 320.1875 127.105 320.1875 128.125 320.1875 C128.785 322.1675 129.445 324.1475 130.125 326.1875 C130.785 326.1875 131.445 326.1875 132.125 326.1875 C132.125 326.8475 132.125 327.5075 132.125 328.1875 C132.785 328.1875 133.445 328.1875 134.125 328.1875 C134.125 329.1775 134.125 330.1675 134.125 331.1875 C134.785 331.1875 135.445 331.1875 136.125 331.1875 C136.125 331.8475 136.125 332.5075 136.125 333.1875 C136.785 333.1875 137.445 333.1875 138.125 333.1875 C139.49748681 334.74065386 140.79978701 336.35635684 142.0625 338 C144.80699668 341.58896267 144.80699668 341.58896267 147.87890625 344.88671875 C149.125 346.1875 149.125 346.1875 149.125 348.1875 C149.785 348.1875 150.445 348.1875 151.125 348.1875 C151.125 348.8475 151.125 349.5075 151.125 350.1875 C155.415 350.1875 159.705 350.1875 164.125 350.1875 C164.455 349.1975 164.785 348.2075 165.125 347.1875 C166.445 347.1875 167.765 347.1875 169.125 347.1875 C169.125 346.1975 169.125 345.2075 169.125 344.1875 C169.785 344.1875 170.445 344.1875 171.125 344.1875 C171.125 343.1975 171.125 342.2075 171.125 341.1875 C171.785 341.1875 172.445 341.1875 173.125 341.1875 C173.125 340.5275 173.125 339.8675 173.125 339.1875 C173.785 339.1875 174.445 339.1875 175.125 339.1875 C175.269375 338.589375 175.41375 337.99125 175.5625 337.375 C176.84062208 332.40452526 176.84062208 332.40452526 179.5 330.375 C182.45448333 327.91293056 183.61468309 325.685076 185.125 322.1875 C186.115 322.1875 187.105 322.1875 188.125 322.1875 C188.434375 321.23875 188.74375 320.29 189.0625 319.3125 C190.125 316.1875 190.125 316.1875 191.125 314.1875 C192.115 314.1875 193.105 314.1875 194.125 314.1875 C194.125 313.1975 194.125 312.2075 194.125 311.1875 C194.785 311.1875 195.445 311.1875 196.125 311.1875 C196.269375 310.56875 196.41375 309.95 196.5625 309.3125 C197.125 307.1875 197.125 307.1875 198.125 305.1875 C198.785 305.1875 199.445 305.1875 200.125 305.1875 C200.125 304.5275 200.125 303.8675 200.125 303.1875 C200.785 303.1875 201.445 303.1875 202.125 303.1875 C202.393125 302.259375 202.66125 301.33125 202.9375 300.375 C204.03477245 297.42968975 204.65857169 296.03732123 207.125 294.1875 C207.785 294.1875 208.445 294.1875 209.125 294.1875 C209.785 292.2075 210.445 290.2275 211.125 288.1875 C211.785 288.1875 212.445 288.1875 213.125 288.1875 C213.41375 287.424375 213.7025 286.66125 214 285.875 C215.125 283.1875 215.125 283.1875 217.125 280.1875 C217.785 280.1875 218.445 280.1875 219.125 280.1875 C219.310625 279.5275 219.49625 278.8675 219.6875 278.1875 C221.73308774 273.91844732 224.69684643 270.44586294 228.125 267.1875 C228.785 267.1875 229.445 267.1875 230.125 267.1875 C230.125 265.8675 230.125 264.5475 230.125 263.1875 C230.785 263.1875 231.445 263.1875 232.125 263.1875 C232.125 262.5275 232.125 261.8675 232.125 261.1875 C232.785 261.1875 233.445 261.1875 234.125 261.1875 C234.186875 260.48625 234.24875 259.785 234.3125 259.0625 C235.43280571 255.09834133 237.28566526 253.16533887 240.125 250.1875 C240.785 250.1875 241.445 250.1875 242.125 250.1875 C242.49625 248.82625 242.49625 248.82625 242.875 247.4375 C244.19348247 244.00944557 245.45082212 242.6185708 248.125 240.1875 C248.66125 239.445 249.1975 238.7025 249.75 237.9375 C250.20375 237.36 250.6575 236.7825 251.125 236.1875 C251.785 236.1875 252.445 236.1875 253.125 236.1875 C253.125 235.1975 253.125 234.2075 253.125 233.1875 C253.785 233.1875 254.445 233.1875 255.125 233.1875 C255.785 231.2075 256.445 229.2275 257.125 227.1875 C257.785 227.1875 258.445 227.1875 259.125 227.1875 C259.125 226.5275 259.125 225.8675 259.125 225.1875 C260.43700404 223.83317325 261.77131404 222.50016518 263.125 221.1875 C263.455 220.5275 263.785 219.8675 264.125 219.1875 C264.785 219.1875 265.445 219.1875 266.125 219.1875 C266.125 218.5275 266.125 217.8675 266.125 217.1875 C266.785 217.1875 267.445 217.1875 268.125 217.1875 C268.2075 216.28 268.29 215.3725 268.375 214.4375 C269.23059643 210.72991549 270.36894771 209.68517239 273.125 207.1875 C273.455 206.1975 273.785 205.2075 274.125 204.1875 C274.785 204.1875 275.445 204.1875 276.125 204.1875 C276.51558594 203.34058594 276.51558594 203.34058594 276.9140625 202.4765625 C278.24250429 199.96537898 279.77294675 197.81747345 281.5 195.5625 C282.08523438 194.78648437 282.67046875 194.01046875 283.2734375 193.2109375 C285.13025132 191.18176121 286.60238645 190.22099366 289.125 189.1875 C289.125 187.8675 289.125 186.5475 289.125 185.1875 C289.785 185.1875 290.445 185.1875 291.125 185.1875 C291.434375 184.1975 291.434375 184.1975 291.75 183.1875 C293.60816152 179.1333294 296.00039326 175.39161327 299.125 172.1875 C300.115 172.1875 301.105 172.1875 302.125 172.1875 C302.125 171.5275 302.125 170.8675 302.125 170.1875 C302.785 170.1875 303.445 170.1875 304.125 170.1875 C304.125 169.5275 304.125 168.8675 304.125 168.1875 C304.785 168.1875 305.445 168.1875 306.125 168.1875 C306.125 167.5275 306.125 166.8675 306.125 166.1875 C306.785 166.1875 307.445 166.1875 308.125 166.1875 C308.125 165.5275 308.125 164.8675 308.125 164.1875 C314.065 164.1875 320.005 164.1875 326.125 164.1875 C326.125 164.8475 326.125 165.5075 326.125 166.1875 C327.445 166.1875 328.765 166.1875 330.125 166.1875 C330.125 166.8475 330.125 167.5075 330.125 168.1875 C330.888125 168.455625 331.65125 168.72375 332.4375 169 C335.02983979 170.14545247 336.42575537 170.95165181 338.125 173.1875 C338.125 174.1775 338.125 175.1675 338.125 176.1875 C339.115 176.1875 340.105 176.1875 341.125 176.1875 C342.99283046 181.67425196 343.3608396 186.40942976 343.125 192.1875 C342.465 192.1875 341.805 192.1875 341.125 192.1875 C341.2075 192.88875 341.29 193.59 341.375 194.3125 C340.76702308 201.30423458 333.85043955 207.16093379 329.46484375 212.28515625 C327.09114278 215.08336688 327.09114278 215.08336688 325.44140625 218.05859375 C325.00699219 218.76113281 324.57257813 219.46367188 324.125 220.1875 C323.465 220.1875 322.805 220.1875 322.125 220.1875 C321.76921875 220.96867187 321.76921875 220.96867187 321.40625 221.765625 C319.70576777 224.97995117 317.68278691 227.94614843 315.625 230.9375 C315.22152344 231.53949219 314.81804687 232.14148438 314.40234375 232.76171875 C313.36279729 234.27472202 312.24911157 235.73622163 311.125 237.1875 C310.465 237.1875 309.805 237.1875 309.125 237.1875 C309.125 237.8475 309.125 238.5075 309.125 239.1875 C308.465 239.1875 307.805 239.1875 307.125 239.1875 C306.980625 239.80625 306.83625 240.425 306.6875 241.0625 C306.125 243.1875 306.125 243.1875 305.125 245.1875 C304.465 245.1875 303.805 245.1875 303.125 245.1875 C302.465 246.8375 301.805 248.4875 301.125 250.1875 C300.465 250.1875 299.805 250.1875 299.125 250.1875 C299.063125 250.72375 299.00125 251.26 298.9375 251.8125 C297.77484663 255.21102523 295.46796039 257.54222214 293.125 260.1875 C290.16295037 263.67226427 288.05605649 267.03572854 286.125 271.1875 C285.465 271.1875 284.805 271.1875 284.125 271.1875 C284.125 271.8475 284.125 272.5075 284.125 273.1875 C283.465 273.1875 282.805 273.1875 282.125 273.1875 C282.125 273.8475 282.125 274.5075 282.125 275.1875 C281.465 275.1875 280.805 275.1875 280.125 275.1875 C279.91875 276.033125 279.7125 276.87875 279.5 277.75 C277.76999721 282.07500698 275.24934518 284.79850441 272.125 288.1875 C271.01424448 289.43164879 269.90984279 290.68150524 268.8125 291.9375 C268.32136719 292.48921875 267.83023437 293.0409375 267.32421875 293.609375 C265.91058375 295.29374145 265.91058375 295.29374145 265.125 298.1875 C264.465 298.1875 263.805 298.1875 263.125 298.1875 C262.7846875 298.9609375 262.7846875 298.9609375 262.4375 299.75 C260.64282382 303.08297005 258.62534985 306.33453671 256.125 309.1875 C255.465 309.1875 254.805 309.1875 254.125 309.1875 C253.980625 309.80625 253.83625 310.425 253.6875 311.0625 C253.125 313.1875 253.125 313.1875 252.125 315.1875 C251.465 315.1875 250.805 315.1875 250.125 315.1875 C250.125 315.8475 250.125 316.5075 250.125 317.1875 C249.465 317.1875 248.805 317.1875 248.125 317.1875 C247.8775 318.074375 247.63 318.96125 247.375 319.875 C246.07535375 323.31906256 244.63770773 325.51774803 242.125 328.1875 C241.465 328.1875 240.805 328.1875 240.125 328.1875 C239.898125 328.868125 239.67125 329.54875 239.4375 330.25 C237.81273854 333.8863709 235.79696743 337.21579263 233.125 340.1875 C232.465 340.1875 231.805 340.1875 231.125 340.1875 C231.125 340.8475 231.125 341.5075 231.125 342.1875 C230.465 342.1875 229.805 342.1875 229.125 342.1875 C228.980625 342.80625 228.83625 343.425 228.6875 344.0625 C228.125 346.1875 228.125 346.1875 227.125 348.1875 C226.465 348.1875 225.805 348.1875 225.125 348.1875 C225.125 349.1775 225.125 350.1675 225.125 351.1875 C224.465 351.1875 223.805 351.1875 223.125 351.1875 C223.125 351.8475 223.125 352.5075 223.125 353.1875 C222.465 353.1875 221.805 353.1875 221.125 353.1875 C220.7846875 354.610625 220.7846875 354.610625 220.4375 356.0625 C220.004375 357.09375 219.57125 358.125 219.125 359.1875 C218.279375 359.5175 217.43375 359.8475 216.5625 360.1875 C215.758125 360.5175 214.95375 360.8475 214.125 361.1875 C213.22669161 364.24022465 213.22669161 364.24022465 213.125 367.1875 C212.135 367.5175 211.145 367.8475 210.125 368.1875 C210.125 368.8475 210.125 369.5075 210.125 370.1875 C209.465 370.1875 208.805 370.1875 208.125 370.1875 C208.125 370.8475 208.125 371.5075 208.125 372.1875 C207.465 372.1875 206.805 372.1875 206.125 372.1875 C206.125 373.5075 206.125 374.8275 206.125 376.1875 C205.465 376.1875 204.805 376.1875 204.125 376.1875 C203.72087891 377.05568359 203.72087891 377.05568359 203.30859375 377.94140625 C202.11214076 380.21190285 200.76194096 382.1018634 199.1875 384.125 C197.40305827 386.44781344 195.85606107 388.64853817 194.375 391.1875 C193.9625 391.8475 193.55 392.5075 193.125 393.1875 C192.465 393.1875 191.805 393.1875 191.125 393.1875 C190.465 394.8375 189.805 396.4875 189.125 398.1875 C188.465 398.1875 187.805 398.1875 187.125 398.1875 C187.125 399.1775 187.125 400.1675 187.125 401.1875 C186.465 401.1875 185.805 401.1875 185.125 401.1875 C184.75375 401.9609375 184.75375 401.9609375 184.375 402.75 C182.72918384 405.95934151 180.9273904 409.06335664 179.125 412.1875 C178.135 412.1875 177.145 412.1875 176.125 412.1875 C176.125 412.8475 176.125 413.5075 176.125 414.1875 C175.465 414.1875 174.805 414.1875 174.125 414.1875 C174.125 414.8475 174.125 415.5075 174.125 416.1875 C172.805 416.1875 171.485 416.1875 170.125 416.1875 C170.125 416.8475 170.125 417.5075 170.125 418.1875 C162.535 418.1875 154.945 418.1875 147.125 418.1875 C147.125 417.5275 147.125 416.8675 147.125 416.1875 C146.53203125 415.9296875 145.9390625 415.671875 145.328125 415.40625 C142.94839035 414.08980105 141.61521208 412.76169218 139.875 410.6875 C139.35421875 410.0790625 138.8334375 409.470625 138.296875 408.84375 C137.125 407.1875 137.125 407.1875 137.125 405.1875 C135.805 404.5275 134.485 403.8675 133.125 403.1875 C133.125 402.5275 133.125 401.8675 133.125 401.1875 C132.465 401.1875 131.805 401.1875 131.125 401.1875 C129.125 398.1875 129.125 398.1875 129.125 395.1875 C128.465 395.1875 127.805 395.1875 127.125 395.1875 C127.125 394.1975 127.125 393.2075 127.125 392.1875 C126.135 391.8575 125.145 391.5275 124.125 391.1875 C121.13336312 388.42023588 118.36358824 385.60429258 116.125 382.1875 C116.125 381.5275 116.125 380.8675 116.125 380.1875 C115.465 380.1875 114.805 380.1875 114.125 380.1875 C114.125 379.5275 114.125 378.8675 114.125 378.1875 C113.465 378.1875 112.805 378.1875 112.125 378.1875 C110.90625 376.69140625 110.90625 376.69140625 109.625 374.75 C107.8384637 371.96218153 107.8384637 371.96218153 105.125 370.1875 C104.691875 369.424375 104.25875 368.66125 103.8125 367.875 C101.95152001 364.91121705 99.85638124 363.32831233 97.125 361.1875 C97.125 360.5275 97.125 359.8675 97.125 359.1875 C96.465 359.1875 95.805 359.1875 95.125 359.1875 C95.125 358.5275 95.125 357.8675 95.125 357.1875 C94.465 357.1875 93.805 357.1875 93.125 357.1875 C93.125 356.5275 93.125 355.8675 93.125 355.1875 C92.465 355.1875 91.805 355.1875 91.125 355.1875 C91.125 354.5275 91.125 353.8675 91.125 353.1875 C90.465 353.1875 89.805 353.1875 89.125 353.1875 C89.125 352.1975 89.125 351.2075 89.125 350.1875 C88.465 350.1875 87.805 350.1875 87.125 350.1875 C85.3984375 348.5078125 85.3984375 348.5078125 83.5 346.3125 C82.86835938 345.59320312 82.23671875 344.87390625 81.5859375 344.1328125 C80.125 342.1875 80.125 342.1875 80.125 340.1875 C79.465 340.1875 78.805 340.1875 78.125 340.1875 C78.125 339.5275 78.125 338.8675 78.125 338.1875 C77.465 338.1875 76.805 338.1875 76.125 338.1875 C76.125 337.5275 76.125 336.8675 76.125 336.1875 C75.465 336.1875 74.805 336.1875 74.125 336.1875 C70.125 330.89338235 70.125 330.89338235 70.125 327.1875 C69.320625 326.94 68.51625 326.6925 67.6875 326.4375 C65.125 325.1875 65.125 325.1875 64.3125 323.0625 C64.250625 322.44375 64.18875 321.825 64.125 321.1875 C63.465 321.1875 62.805 321.1875 62.125 321.1875 C59.125 317.72596154 59.125 317.72596154 59.125 315.1875 C58.465 315.1875 57.805 315.1875 57.125 315.1875 C57.125 314.5275 57.125 313.8675 57.125 313.1875 C56.465 313.1875 55.805 313.1875 55.125 313.1875 C54.465 311.2075 53.805 309.2275 53.125 307.1875 C52.465 307.1875 51.805 307.1875 51.125 307.1875 C51.125 306.1975 51.125 305.2075 51.125 304.1875 C50.465 304.1875 49.805 304.1875 49.125 304.1875 C49.125 303.5275 49.125 302.8675 49.125 302.1875 C48.135 302.1875 47.145 302.1875 46.125 302.1875 C46.125 301.5275 46.125 300.8675 46.125 300.1875 C45.465 300.1875 44.805 300.1875 44.125 300.1875 C44.125 299.5275 44.125 298.8675 44.125 298.1875 C43.465 298.1875 42.805 298.1875 42.125 298.1875 C38.125 293.71691176 38.125 293.71691176 38.125 291.1875 C37.465 291.1875 36.805 291.1875 36.125 291.1875 C36.125 290.5275 36.125 289.8675 36.125 289.1875 C35.465 289.1875 34.805 289.1875 34.125 289.1875 C34.125 288.5275 34.125 287.8675 34.125 287.1875 C33.465 287.1875 32.805 287.1875 32.125 287.1875 C32.125 286.5275 32.125 285.8675 32.125 285.1875 C31.465 285.1875 30.805 285.1875 30.125 285.1875 C30.125 284.5275 30.125 283.8675 30.125 283.1875 C29.465 283.1875 28.805 283.1875 28.125 283.1875 C28.125 282.5275 28.125 281.8675 28.125 281.1875 C27.465 281.1875 26.805 281.1875 26.125 281.1875 C23.125 277.72596154 23.125 277.72596154 23.125 275.1875 C22.465 275.1875 21.805 275.1875 21.125 275.1875 C21.125 274.1975 21.125 273.2075 21.125 272.1875 C20.465 272.1875 19.805 272.1875 19.125 272.1875 C19.125 271.5275 19.125 270.8675 19.125 270.1875 C17.805 269.5275 16.485 268.8675 15.125 268.1875 C15.125 267.1975 15.125 266.2075 15.125 265.1875 C14.465 265.1875 13.805 265.1875 13.125 265.1875 C13.125 264.1975 13.125 263.2075 13.125 262.1875 C12.465 262.1875 11.805 262.1875 11.125 262.1875 C11.125 261.5275 11.125 260.8675 11.125 260.1875 C10.465 260.1875 9.805 260.1875 9.125 260.1875 C8.28651196 258.73212432 7.45436066 257.27309627 6.625 255.8125 C6.1609375 255.00039063 5.696875 254.18828125 5.21875 253.3515625 C4.125 251.1875 4.125 251.1875 4.125 249.1875 C3.465 249.1875 2.805 249.1875 2.125 249.1875 C1.92003906 248.27226563 1.71507812 247.35703125 1.50390625 246.4140625 C1.23449219 245.22554687 0.96507812 244.03703125 0.6875 242.8125 C0.42066406 241.62914062 0.15382813 240.44578125 -0.12109375 239.2265625 C-0.73134695 236.29255419 -0.73134695 236.29255419 -1.875 234.1875 C-1.96972912 232.66904798 -2.0048841 231.14639616 -2 229.625 C-2.00386719 228.41650391 -2.00386719 228.41650391 -2.0078125 227.18359375 C-1.875 225.1875 -1.875 225.1875 -0.875 224.1875 C-0.5029752 222.5918624 -0.17680201 220.98539665 0.125 219.375 C0.70929913 216.28460537 1.33039872 213.23110667 2.125 210.1875 C2.785 210.1875 3.445 210.1875 4.125 210.1875 C4.125 208.8675 4.125 207.5475 4.125 206.1875 C4.785 206.1875 5.445 206.1875 6.125 206.1875 C7.115 203.2175 7.115 203.2175 8.125 200.1875 C9.115 200.1875 10.105 200.1875 11.125 200.1875 C11.125 199.1975 11.125 198.2075 11.125 197.1875 C11.785 197.1875 12.445 197.1875 13.125 197.1875 C13.3725 196.56875 13.62 195.95 13.875 195.3125 C15.33128639 192.83681313 16.50312506 192.23624998 19.125 191.1875 C19.125 190.5275 19.125 189.8675 19.125 189.1875 C23.27766026 185.96229505 27.84080721 182.76807131 33.25 182.8125 C34.673125 182.998125 34.673125 182.998125 36.125 183.1875 C36.125 182.5275 36.125 181.8675 36.125 181.1875 C37.04023438 181.12691406 37.95546875 181.06632813 38.8984375 181.00390625 C40.08695312 180.92011719 41.27546875 180.83632813 42.5 180.75 C43.68335938 180.66878906 44.86671875 180.58757812 46.0859375 180.50390625 C49.04018901 180.37665064 49.04018901 180.37665064 51.125 179.1875 C53.67657655 179.1158265 56.19972971 179.09441558 58.75 179.125 C59.80960938 179.13176758 59.80960938 179.13176758 60.890625 179.13867188 C62.63545275 179.15046125 64.380237 179.16839676 66.125 179.1875 C66.125 178.1975 66.125 177.2075 66.125 176.1875 C66.97964844 176.12691406 67.83429688 176.06632813 68.71484375 176.00390625 C69.81957031 175.92011719 70.92429687 175.83632813 72.0625 175.75 C73.71572266 175.62818359 73.71572266 175.62818359 75.40234375 175.50390625 C78.03609903 175.48331916 78.03609903 175.48331916 79.125 174.1875 C81.44317089 173.86652249 83.76279357 173.67529044 86.09375 173.46875 C88.11680593 173.39684163 88.11680593 173.39684163 89.125 172.1875 C91.26704311 171.97766721 93.41424113 171.81926615 95.5625 171.6875 C100.00284331 171.54602674 100.00284331 171.54602674 104.125 170.1875 C105.93370138 169.98370266 107.74736592 169.82249005 109.5625 169.6875 C112.68808718 169.45443358 115.13924829 169.18275057 118.125 168.1875 C120.35243135 168.03466481 122.58212935 167.91377088 124.8125 167.8125 C130.61243864 167.43657805 134.838228 166.50625965 140.125 164.1875 C142.45248694 163.50070058 144.78486656 162.82988957 147.125 162.1875 C150.23832248 161.51881686 150.23832248 161.51881686 151.3125 159.125 C151.580625 158.485625 151.84875 157.84625 152.125 157.1875 C152.785 157.1875 153.445 157.1875 154.125 157.1875 C154.0940625 155.4859375 154.0940625 155.4859375 154.0625 153.75 C154.125 150.1875 154.125 150.1875 155.125 149.1875 C155.24772849 147.59236107 155.30281043 145.99195068 155.33032227 144.39233398 C155.35026749 143.37135117 155.37021271 142.35036835 155.39076233 141.29844666 C155.40747482 140.1880452 155.42418732 139.07764374 155.44140625 137.93359375 C155.4725779 136.23771873 155.4725779 136.23771873 155.50437927 134.50758362 C155.56999797 130.88012015 155.62881677 127.25258167 155.6875 123.625 C155.73067351 121.17251814 155.7742874 118.720044 155.81835938 116.26757812 C155.92569184 110.24096573 156.0274349 104.21427799 156.125 98.1875 C155.465 98.1875 154.805 98.1875 154.125 98.1875 C154.125 96.5375 154.125 94.8875 154.125 93.1875 C153.465 93.1875 152.805 93.1875 152.125 93.1875 C152.125 91.8675 152.125 90.5475 152.125 89.1875 C151.465 89.1875 150.805 89.1875 150.125 89.1875 C149.485625 88.383125 148.84625 87.57875 148.1875 86.75 C146.31464068 83.95029268 146.31464068 83.95029268 143.125 83.1875 C143.125 82.5275 143.125 81.8675 143.125 81.1875 C142.320625 81.208125 141.51625 81.22875 140.6875 81.25 C138.125 81.1875 138.125 81.1875 137.125 80.1875 C134.18845762 80.08689854 131.27539702 80.05134965 128.33837891 80.05810547 C126.95550438 80.05547699 126.95550438 80.05547699 125.54469299 80.05279541 C122.48029732 80.04837442 119.41595882 80.05131623 116.3515625 80.0546875 C114.23025501 80.05401442 112.1089476 80.05304435 109.98764038 80.05178833 C105.533745 80.05031093 101.07986963 80.05246684 96.62597656 80.05712891 C90.91029068 80.06281929 85.19465182 80.05955183 79.47896767 80.05355644 C75.09530278 80.04994606 70.71164907 80.05109174 66.32798386 80.05368423 C64.22040171 80.05435254 62.11281855 80.05352843 60.00523758 80.05120468 C57.06026771 80.04867113 54.11537432 80.05252907 51.17041016 80.05810547 C49.85646523 80.05506912 49.85646523 80.05506912 48.51597595 80.05197144 C45.13712118 80.06385111 42.35284211 80.11155263 39.125 81.1875 C39.125 81.8475 39.125 82.5075 39.125 83.1875 C38.465 83.1875 37.805 83.1875 37.125 83.1875 C37.125 83.8475 37.125 84.5075 37.125 85.1875 C36.465 85.1875 35.805 85.1875 35.125 85.1875 C35.125 85.8475 35.125 86.5075 35.125 87.1875 C34.465 87.1875 33.805 87.1875 33.125 87.1875 C33.125 87.8475 33.125 88.5075 33.125 89.1875 C32.465 89.1875 31.805 89.1875 31.125 89.1875 C30.91875 89.77273438 30.7125 90.35796875 30.5 90.9609375 C27.27130447 96.18922287 19.23040217 99.10013441 13.5703125 101.08203125 C6.31295271 102.78030231 -1.46699506 102.59852479 -8.875 102.1875 C-9.205 101.8575 -9.535 101.5275 -9.875 101.1875 C-11.22247084 100.95674918 -12.57877565 100.77596937 -13.9375 100.625 C-15.236875 100.480625 -16.53625 100.33625 -17.875 100.1875 C-17.875 99.5275 -17.875 98.8675 -17.875 98.1875 C-18.48988281 98.07792969 -19.10476563 97.96835937 -19.73828125 97.85546875 C-20.95064453 97.61763672 -20.95064453 97.61763672 -22.1875 97.375 C-23.38826172 97.14876953 -23.38826172 97.14876953 -24.61328125 96.91796875 C-27.13820524 96.10249244 -28.25569734 95.26796329 -29.875 93.1875 C-29.875 92.5275 -29.875 91.8675 -29.875 91.1875 C-30.535 91.1875 -31.195 91.1875 -31.875 91.1875 C-31.875 90.5275 -31.875 89.8675 -31.875 89.1875 C-33.195 89.1875 -34.515 89.1875 -35.875 89.1875 C-35.875 88.5275 -35.875 87.8675 -35.875 87.1875 C-36.535 87.1875 -37.195 87.1875 -37.875 87.1875 C-37.875 86.5275 -37.875 85.8675 -37.875 85.1875 C-38.535 85.1875 -39.195 85.1875 -39.875 85.1875 C-39.875 84.1975 -39.875 83.2075 -39.875 82.1875 C-40.535 82.1875 -41.195 82.1875 -41.875 82.1875 C-49.93916028 67.75552384 -54.81528136 53.94170447 -50.875 37.1875 C-49.21131418 32.35768083 -47.20018013 27.73359209 -44.875 23.1875 C-43.885 23.1875 -42.895 23.1875 -41.875 23.1875 C-41.730625 22.40375 -41.58625 21.62 -41.4375 20.8125 C-40.875 18.1875 -40.875 18.1875 -39.875 16.1875 C-39.215 16.1875 -38.555 16.1875 -37.875 16.1875 C-37.62363281 15.59066406 -37.37226563 14.99382812 -37.11328125 14.37890625 C-34.31987953 9.43537829 -27.86536209 5.68268105 -22.875 3.1875 C-21.555 3.1875 -20.235 3.1875 -18.875 3.1875 C-18.875 2.5275 -18.875 1.8675 -18.875 1.1875 C-12.57683508 0.07238581 -6.38606729 0.00393716 0 0 Z " fill="#215DB7" transform="translate(377.875,327.8125)"/>
<path d="M0 0 C1.01126953 -0.01611328 2.02253906 -0.03222656 3.06445312 -0.04882812 C9.06972445 -0.05274546 13.23927656 0.52021484 18.5625 3.3125 C19.29339844 3.62574219 20.02429688 3.93898438 20.77734375 4.26171875 C22.37239583 4.9453125 23.96744792 5.62890625 25.5625 6.3125 C25.5625 6.9725 25.5625 7.6325 25.5625 8.3125 C26.8825 8.3125 28.2025 8.3125 29.5625 8.3125 C29.5625 8.9725 29.5625 9.6325 29.5625 10.3125 C30.2225 10.3125 30.8825 10.3125 31.5625 10.3125 C34.60645069 13.05205562 37.00646229 15.49313472 38.5625 19.3125 C39.2225 19.3125 39.8825 19.3125 40.5625 19.3125 C42.5625 22.3125 42.5625 22.3125 42.5625 25.3125 C43.2225 25.3125 43.8825 25.3125 44.5625 25.3125 C44.5625 26.6325 44.5625 27.9525 44.5625 29.3125 C45.2225 29.3125 45.8825 29.3125 46.5625 29.3125 C46.5625 30.6325 46.5625 31.9525 46.5625 33.3125 C47.2225 33.3125 47.8825 33.3125 48.5625 33.3125 C50.23762837 36.97881871 50.81855 39.85349857 50.828125 43.875 C50.83199219 45.44121094 50.83199219 45.44121094 50.8359375 47.0390625 C50.82820312 48.11929688 50.82046875 49.19953125 50.8125 50.3125 C50.82023438 51.39273438 50.82796875 52.47296875 50.8359375 53.5859375 C50.83335937 54.63007813 50.83078125 55.67421875 50.828125 56.75 C50.82586914 57.69746094 50.82361328 58.64492188 50.82128906 59.62109375 C50.54383791 62.50658577 49.76206812 64.68703014 48.5625 67.3125 C47.9025 67.3125 47.2425 67.3125 46.5625 67.3125 C46.60375 68.055 46.645 68.7975 46.6875 69.5625 C46.55851866 72.40008952 45.99198778 73.90023938 44.5625 76.3125 C43.9025 76.3125 43.2425 76.3125 42.5625 76.3125 C42.5625 77.3025 42.5625 78.2925 42.5625 79.3125 C41.9025 79.3125 41.2425 79.3125 40.5625 79.3125 C40.38460937 80.18455078 40.38460937 80.18455078 40.203125 81.07421875 C39.10356758 84.9159651 36.76138193 88.01111459 34.5625 91.3125 C34.11003906 91.99699219 33.65757812 92.68148437 33.19140625 93.38671875 C32.04052593 95.0703508 30.80756824 96.69727634 29.5625 98.3125 C28.9025 98.3125 28.2425 98.3125 27.5625 98.3125 C27.5625 99.6325 27.5625 100.9525 27.5625 102.3125 C26.9025 102.3125 26.2425 102.3125 25.5625 102.3125 C25.459375 103.04210937 25.35625 103.77171875 25.25 104.5234375 C24.49721159 107.57736321 23.3826028 109.39110619 21.5625 111.9375 C19.75015887 114.49046131 18.56020625 116.31938125 17.5625 119.3125 C16.325 119.7146875 16.325 119.7146875 15.0625 120.125 C13.825 120.7128125 13.825 120.7128125 12.5625 121.3125 C12.22126419 123.31116686 11.8899322 125.31152542 11.5625 127.3125 C10.14190104 129.7625185 8.57272174 132.04805196 6.9375 134.359375 C5.52600025 136.26116723 5.52600025 136.26116723 4.5625 138.3125 C3.9025 138.3125 3.2425 138.3125 2.5625 138.3125 C2.5625 138.9725 2.5625 139.6325 2.5625 140.3125 C-0.1640625 140.61328125 -0.1640625 140.61328125 -3.4375 140.3125 C-5.7734375 138.23046875 -5.7734375 138.23046875 -7.8125 135.5 C-8.50085938 134.60667969 -9.18921875 133.71335937 -9.8984375 132.79296875 C-11.4375 130.3125 -11.4375 130.3125 -11.4375 127.3125 C-12.0975 127.3125 -12.7575 127.3125 -13.4375 127.3125 C-13.4375 125.9925 -13.4375 124.6725 -13.4375 123.3125 C-14.0975 123.3125 -14.7575 123.3125 -15.4375 123.3125 C-16.8981285 120.66511084 -17.4375 119.41801666 -17.4375 116.3125 C-18.4275 116.3125 -19.4175 116.3125 -20.4375 116.3125 C-20.870625 115.219375 -21.30375 114.12625 -21.75 113 C-22.94623916 110.17459702 -24.14483935 108.38681202 -26.4375 106.3125 C-26.4375 105.6525 -26.4375 104.9925 -26.4375 104.3125 C-27.0975 104.3125 -27.7575 104.3125 -28.4375 104.3125 C-28.4375 102.9925 -28.4375 101.6725 -28.4375 100.3125 C-29.0975 100.3125 -29.7575 100.3125 -30.4375 100.3125 C-31.11158308 99.04558493 -31.77650497 97.77379251 -32.4375 96.5 C-32.80875 95.79230469 -33.18 95.08460938 -33.5625 94.35546875 C-34.4375 92.3125 -34.4375 92.3125 -34.4375 89.3125 C-35.0975 89.3125 -35.7575 89.3125 -36.4375 89.3125 C-36.4375 88.6525 -36.4375 87.9925 -36.4375 87.3125 C-37.0975 87.3125 -37.7575 87.3125 -38.4375 87.3125 C-48.64394968 74.34755041 -53.92505104 60.70070919 -52.2109375 44.12109375 C-51.98361815 42.51362118 -51.71566659 40.91195788 -51.4375 39.3125 C-50.7775 39.3125 -50.1175 39.3125 -49.4375 39.3125 C-49.334375 38.673125 -49.23125 38.03375 -49.125 37.375 C-47.92202353 32.01628663 -46.496529 26.9010435 -43.4375 22.3125 C-42.7775 22.3125 -42.1175 22.3125 -41.4375 22.3125 C-41.355 21.735 -41.2725 21.1575 -41.1875 20.5625 C-40.21952213 17.6585664 -38.75055716 16.27509396 -36.4375 14.3125 C-35.7775 14.3125 -35.1175 14.3125 -34.4375 14.3125 C-33.7775 12.9925 -33.1175 11.6725 -32.4375 10.3125 C-31.4475 10.3125 -30.4575 10.3125 -29.4375 10.3125 C-29.4375 9.6525 -29.4375 8.9925 -29.4375 8.3125 C-28.4475 8.3125 -27.4575 8.3125 -26.4375 8.3125 C-26.4375 7.6525 -26.4375 6.9925 -26.4375 6.3125 C-25.1175 6.3125 -23.7975 6.3125 -22.4375 6.3125 C-22.4375 5.6525 -22.4375 4.9925 -22.4375 4.3125 C-20.7875 4.3125 -19.1375 4.3125 -17.4375 4.3125 C-17.4375 3.6525 -17.4375 2.9925 -17.4375 2.3125 C-11.67945419 -0.15804615 -6.15155445 -0.01952874 0 0 Z " fill="#01945E" transform="translate(697.4375,329.6875)"/>
<path d="M0 0 C0.495 0.99 0.495 0.99 1 2 C3.97 1.505 3.97 1.505 7 1 C5.71937515 2.7074998 4.38232443 4.37373596 3 6 C2.34 6 1.68 6 1 6 C0.62875 6.928125 0.62875 6.928125 0.25 7.875 C-1.20628639 10.35068687 -2.37812506 10.95125002 -5 12 C-5 12.66 -5 13.32 -5 14 C-5.66 14 -6.32 14 -7 14 C-7 14.66 -7 15.32 -7 16 C-7.99 16 -8.98 16 -10 16 C-10 16.66 -10 17.32 -10 18 C-10.99 18 -11.98 18 -13 18 C-13.495 19.485 -13.495 19.485 -14 21 C-16.73046875 22.53515625 -16.73046875 22.53515625 -20.1875 24.0625 C-21.31542969 24.56910156 -22.44335938 25.07570313 -23.60546875 25.59765625 C-28.54263144 27.63728963 -32.96768626 29.18130691 -38.3125 29.5625 C-41.46173433 29.56002019 -41.46173433 29.56002019 -44 31 C-46.35313555 31.07271741 -48.70833668 31.08370868 -51.0625 31.0625 C-52.35285156 31.05347656 -53.64320313 31.04445313 -54.97265625 31.03515625 C-55.97167969 31.02355469 -56.97070312 31.01195312 -58 31 C-58 31.66 -58 32.32 -58 33 C-59.60681641 33.09087891 -59.60681641 33.09087891 -61.24609375 33.18359375 C-62.64324391 33.26798537 -64.04037857 33.35263406 -65.4375 33.4375 C-66.14455078 33.47681641 -66.85160156 33.51613281 -67.58007812 33.55664062 C-71.08690419 33.47624438 -71.08690419 33.47624438 -74 35 C-76.83972535 35.32351301 -79.68073737 35.5130429 -82.53125 35.71875 C-84.9413605 35.73385265 -84.9413605 35.73385265 -86 37 C-87.68608966 37.07205511 -89.37500659 37.08386068 -91.0625 37.0625 C-91.98160156 37.05347656 -92.90070313 37.04445313 -93.84765625 37.03515625 C-94.55792969 37.02355469 -95.26820313 37.01195312 -96 37 C-96 36.67 -96 36.34 -96 36 C-84.2697673 32.8075949 -73.15114526 31.28423732 -61 31 C-61 30.34 -61 29.68 -61 29 C-60.04738281 28.87882813 -59.09476562 28.75765625 -58.11328125 28.6328125 C-56.85902344 28.46523438 -55.60476563 28.29765625 -54.3125 28.125 C-52.45044922 27.88136719 -52.45044922 27.88136719 -50.55078125 27.6328125 C-47.09143105 27.14512556 -47.09143105 27.14512556 -44.37890625 25.92578125 C-41.58747308 24.83945997 -39.60124011 24.89620578 -36.625 25.0625 C-31.50797951 25.17957853 -28.54723262 24.22721598 -24 22 C-22.68 22 -21.36 22 -20 22 C-20 21.01 -20 20.02 -20 19 C-18.02 19 -16.04 19 -14 19 C-14 18.01 -14 17.02 -14 16 C-13.01 15.34 -12.02 14.68 -11 14 C-10.6278958 12.67696283 -10.29369827 11.34262065 -10 10 C-7.4345406 7.4345406 -5.52313332 7.45953913 -2 7 C-1.855625 6.21625 -1.71125 5.4325 -1.5625 4.625 C-1 2 -1 2 0 0 Z " fill="#3B5F98" transform="translate(564,515)"/>
<path d="M0 0 C0.66 0 1.32 0 2 0 C2 0.66 2 1.32 2 2 C1.34 2 0.68 2 0 2 C0 2.66 0 3.32 0 4 C-0.66 4 -1.32 4 -2 4 C-2 5.32 -2 6.64 -2 8 C-2.66 8 -3.32 8 -4 8 C-4.26941406 8.57878906 -4.53882813 9.15757812 -4.81640625 9.75390625 C-6.01285924 12.02440285 -7.36305904 13.9143634 -8.9375 15.9375 C-10.72194173 18.26031344 -12.26893893 20.46103817 -13.75 23 C-14.1625 23.66 -14.575 24.32 -15 25 C-15.66 25 -16.32 25 -17 25 C-17.99 27.475 -17.99 27.475 -19 30 C-19.66 30 -20.32 30 -21 30 C-21 30.99 -21 31.98 -21 33 C-21.66 33 -22.32 33 -23 33 C-23.2475 33.515625 -23.495 34.03125 -23.75 34.5625 C-25.39581616 37.77184151 -27.1976096 40.87585664 -29 44 C-29.33 44 -29.66 44 -30 44 C-29.67 41.36 -29.34 38.72 -29 36 C-28.34 36 -27.68 36 -27 36 C-27 35.34 -27 34.68 -27 34 C-26.01 33.505 -26.01 33.505 -25 33 C-24.87625 32.38125 -24.7525 31.7625 -24.625 31.125 C-23.79230249 28.29382846 -22.4793285 27.50262333 -20 26 C-19.34 26 -18.68 26 -18 26 C-18 25.34 -18 24.68 -18 24 C-17.34 24 -16.68 24 -16 24 C-16.07089844 23.26007812 -16.14179687 22.52015625 -16.21484375 21.7578125 C-15.94593003 18.30593822 -14.94677092 17.32163615 -12.5625 14.875 C-10.22262944 12.44531623 -9.08270157 11.2481047 -8 8 C-7.360625 7.87625 -6.72125 7.7525 -6.0625 7.625 C-5.381875 7.41875 -4.70125 7.2125 -4 7 C-2.83046584 4.57616923 -2.83046584 4.57616923 -2 2 C-1.34 1.34 -0.68 0.68 0 0 Z " fill="#47699E" transform="translate(586,696)"/>
<path d="M0 0 C1.32 0 2.64 0 4 0 C4 0.66 4 1.32 4 2 C4.763125 2.268125 5.52625 2.53625 6.3125 2.8125 C8.90483979 3.95795247 10.30075537 4.76415181 12 7 C12 7.99 12 8.98 12 10 C12.99 10 13.98 10 15 10 C16.86783046 15.48675196 17.2358396 20.22192976 17 26 C16.34 26 15.68 26 15 26 C15.0825 26.70125 15.165 27.4025 15.25 28.125 C14.9191745 31.92949327 13.24686686 33.98077266 11 37 C10 34 10 34 10.9375 31.1875 C13.31969281 23.60337596 13.07396643 14.30339542 10 7 C8.13803054 6.07606836 8.13803054 6.07606836 6 6 C3.875 5.75 3.875 5.75 2 5 C0.75 2.4375 0.75 2.4375 0 0 Z " fill="#2C5AA0" transform="translate(704,494)"/>
<path d="M0 0 C0.99 0.66 1.98 1.32 3 2 C2.04956626 3.33897583 1.08940853 4.67105427 0.125 6 C-0.40867187 6.7425 -0.94234375 7.485 -1.4921875 8.25 C-1.98976563 8.8275 -2.48734375 9.405 -3 10 C-3.66 10 -4.32 10 -5 10 C-5.144375 10.61875 -5.28875 11.2375 -5.4375 11.875 C-6 14 -6 14 -7 16 C-7.66 16 -8.32 16 -9 16 C-9 16.66 -9 17.32 -9 18 C-9.66 18 -10.32 18 -11 18 C-11.2475 18.886875 -11.495 19.77375 -11.75 20.6875 C-13.04964625 24.13156256 -14.48729227 26.33024803 -17 29 C-17.66 29 -18.32 29 -19 29 C-19.226875 29.680625 -19.45375 30.36125 -19.6875 31.0625 C-21.31226146 34.6988709 -23.32803257 38.02829263 -26 41 C-26.66 41 -27.32 41 -28 41 C-28 39.68 -28 38.36 -28 37 C-27.34 37 -26.68 37 -26 37 C-25.34 35.68 -24.68 34.36 -24 33 C-23.34 33 -22.68 33 -22 33 C-21.896875 32.443125 -21.79375 31.88625 -21.6875 31.3125 C-20.41456773 27.03081874 -18.10050861 24.10050861 -15 21 C-14.484375 20.113125 -13.96875 19.22625 -13.4375 18.3125 C-12.963125 17.549375 -12.48875 16.78625 -12 16 C-11.34 16 -10.68 16 -10 16 C-10 15.01 -10 14.02 -10 13 C-9.34 13 -8.68 13 -8 13 C-7.67 11.35 -7.34 9.7 -7 8 C-6.01 7.67 -5.02 7.34 -4 7 C-2.77554716 5.37051936 -2.77554716 5.37051936 -1.8125 3.4375 C-1.214375 2.303125 -0.61625 1.16875 0 0 Z " fill="#466A9F" transform="translate(637,627)"/>
<path d="M0 0 C0.99 0 1.98 0 3 0 C3.144375 1.134375 3.28875 2.26875 3.4375 3.4375 C3.61171478 6.80777201 3.61171478 6.80777201 5 8 C5.09443335 10.30053835 5.11742128 12.60402173 5.11352539 14.90649414 C5.11367142 15.62840439 5.11381744 16.35031464 5.1139679 17.09410095 C5.11326869 19.49114947 5.10547595 21.88812123 5.09765625 24.28515625 C5.0957921 25.94282489 5.09436818 27.60049407 5.09336853 29.25816345 C5.08954312 33.62954214 5.07971265 38.00088781 5.06866455 42.37225342 C5.05845092 46.82954461 5.05387101 51.28684111 5.04882812 55.74414062 C5.0380904 64.49610893 5.02101371 73.24805036 5 82 C4.34 82 3.68 82 3 82 C3 84.31 3 86.62 3 89 C2.67 89 2.34 89 2 89 C2 86.03 2 83.06 2 80 C2.66 80 3.32 80 4 80 C3.67 57.23 3.34 34.46 3 11 C2.34 10.67 1.68 10.34 1 10 C0.5859375 7.71484375 0.5859375 7.71484375 0.375 4.9375 C0.30023437 4.01839844 0.22546875 3.09929687 0.1484375 2.15234375 C0.09945312 1.44207031 0.05046875 0.73179687 0 0 Z " fill="#6587B4" transform="translate(579,407)"/>
<path d="M0 0 C0.66 0.33 1.32 0.66 2 1 C0.71656721 3.00573682 -0.5760369 5.00436119 -1.875 7 C-2.23980469 7.57234375 -2.60460937 8.1446875 -2.98046875 8.734375 C-3.93474767 10.19181916 -4.96277587 11.60037225 -6 13 C-6.66 13 -7.32 13 -8 13 C-8 13.66 -8 14.32 -8 15 C-8.66 15 -9.32 15 -10 15 C-10.144375 15.61875 -10.28875 16.2375 -10.4375 16.875 C-11 19 -11 19 -12 21 C-12.66 21 -13.32 21 -14 21 C-14.99 23.475 -14.99 23.475 -16 26 C-16.66 26 -17.32 26 -18 26 C-18.0825 26.598125 -18.165 27.19625 -18.25 27.8125 C-19.20455872 30.5966296 -20.57132271 31.43311142 -23 33 C-23 31.68 -23 30.36 -23 29 C-22.34 28.67 -21.68 28.34 -21 28 C-19.86649466 25.98330173 -19.86649466 25.98330173 -19 24 C-18.34 24 -17.68 24 -17 24 C-17 22.68 -17 21.36 -17 20 C-15.0625 17.875 -15.0625 17.875 -13 16 C-12.67 15.34 -12.34 14.68 -12 14 C-11.34 14 -10.68 14 -10 14 C-10 12.35 -10 10.7 -10 9 C-9.01 9.33 -8.02 9.66 -7 10 C-7 9.34 -7 8.68 -7 8 C-6.34 8 -5.68 8 -5 8 C-5 6.68 -5 5.36 -5 4 C-4.01 4 -3.02 4 -2 4 C-1.67 3.01 -1.34 2.02 -1 1 C-0.67 0.67 -0.34 0.34 0 0 Z " fill="#385D9C" transform="translate(695,552)"/>
<path d="M0 0 C0.33 0.66 0.66 1.32 1 2 C2.98 1.67 4.96 1.34 7 1 C5.71937515 2.7074998 4.38232443 4.37373596 3 6 C2.34 6 1.68 6 1 6 C0.7525 6.61875 0.505 7.2375 0.25 7.875 C-1.20628639 10.35068687 -2.37812506 10.95125002 -5 12 C-5 12.66 -5 13.32 -5 14 C-5.66 14 -6.32 14 -7 14 C-7 14.66 -7 15.32 -7 16 C-8.65 16 -10.3 16 -12 16 C-10.25 10.25 -10.25 10.25 -8 8 C-6.01178687 7.60235737 -4.01055661 7.26224651 -2 7 C-1.855625 6.21625 -1.71125 5.4325 -1.5625 4.625 C-1 2 -1 2 0 0 Z " fill="#3960A2" transform="translate(564,515)"/>
<path d="M0 0 C0.99 0.33 1.98 0.66 3 1 C2.34 1 1.68 1 1 1 C0.690625 2.2684375 0.690625 2.2684375 0.375 3.5625 C-1.35500279 7.88750698 -3.87565482 10.61100441 -7 14 C-8.11075552 15.24414879 -9.21515721 16.49400524 -10.3125 17.75 C-11.04919922 18.57757812 -11.04919922 18.57757812 -11.80078125 19.421875 C-13.21441625 21.10624145 -13.21441625 21.10624145 -14 24 C-14.66 24 -15.32 24 -16 24 C-16.33 24.66 -16.66 25.32 -17 26 C-16.67 23.69 -16.34 21.38 -16 19 C-15.34 19 -14.68 19 -14 19 C-13.7525 18.443125 -13.505 17.88625 -13.25 17.3125 C-11.77268126 14.57946033 -9.96951763 12.40718822 -8 10 C-6.44820118 7.8632924 -4.90097242 5.72390176 -3.3671875 3.57421875 C-2.91601562 3.05472656 -2.46484375 2.53523437 -2 2 C-1.34 2 -0.68 2 0 2 C0 1.34 0 0.68 0 0 Z " fill="#476AA0" transform="translate(657,602)"/>
<path d="M0 0 C1.010625 0.33 2.02125 0.66 3.0625 1 C3.0625 1.66 3.0625 2.32 3.0625 3 C3.7225 3.33 4.3825 3.66 5.0625 4 C4.35061523 3.83773926 3.63873047 3.67547852 2.90527344 3.50830078 C0.06293986 3.00007865 -2.53745028 2.87068196 -5.421875 2.8671875 C-6.94748047 2.86525391 -6.94748047 2.86525391 -8.50390625 2.86328125 C-10.07978516 2.86908203 -10.07978516 2.86908203 -11.6875 2.875 C-13.28658203 2.86919922 -13.28658203 2.86919922 -14.91796875 2.86328125 C-15.92988281 2.86457031 -16.94179688 2.86585938 -17.984375 2.8671875 C-19.37414551 2.86887939 -19.37414551 2.86887939 -20.79199219 2.87060547 C-22.91946483 2.76087937 -22.91946483 2.76087937 -23.9375 4 C-25.60367115 4.04063832 -27.27138095 4.042721 -28.9375 4 C-28.380625 3.731875 -27.82375 3.46375 -27.25 3.1875 C-24.89276884 2.04667265 -24.89276884 2.04667265 -22.75 0.4453125 C-16.28119183 -2.87893614 -6.92850945 -1.72591902 0 0 Z " fill="#BBE5D7" transform="translate(708.9375,328)"/>
<path d="M0 0 C1.65 0 3.3 0 5 0 C1.25 3 1.25 3 -1 3 C-1 3.66 -1 4.32 -1 5 C-1.66 5 -2.32 5 -3 5 C-3 5.66 -3 6.32 -3 7 C-3.66 7 -4.32 7 -5 7 C-5 7.66 -5 8.32 -5 9 C-5.66 9 -6.32 9 -7 9 C-7 9.66 -7 10.32 -7 11 C-7.66 11 -8.32 11 -9 11 C-9.185625 11.5775 -9.37125 12.155 -9.5625 12.75 C-11.79197768 16.23961724 -14.2199579 17.30549837 -18 19 C-20.4375 18.25 -20.4375 18.25 -22 17 C-20.68 17 -19.36 17 -18 17 C-18 16.01 -18 15.02 -18 14 C-17.44570313 13.75765625 -16.89140625 13.5153125 -16.3203125 13.265625 C-15.59585937 12.93046875 -14.87140625 12.5953125 -14.125 12.25 C-13.40570313 11.92515625 -12.68640625 11.6003125 -11.9453125 11.265625 C-9.63206254 9.760619 -9.15149591 8.45781479 -8 6 C-5 4 -5 4 -2 4 C-1.34 2.68 -0.68 1.36 0 0 Z " fill="#395D93" transform="translate(418,406)"/>
<path d="M0 0 C0.33 0.66 0.66 1.32 1 2 C0.05439935 4.0262871 -0.95377125 6.02379014 -2 8 C-2.68528045 9.65910004 -3.35891863 11.32332564 -4 13 C-5.65 13 -7.3 13 -9 13 C-9 13.66 -9 14.32 -9 15 C-9.66 15 -10.32 15 -11 15 C-11 15.66 -11 16.32 -11 17 C-13.52475462 18.26237731 -15.31200466 18.09856404 -18.125 18.0625 C-19.03507813 18.05347656 -19.94515625 18.04445313 -20.8828125 18.03515625 C-21.93082031 18.01775391 -21.93082031 18.01775391 -23 18 C-22.505 16.515 -22.505 16.515 -22 15 C-18.7 15 -15.4 15 -12 15 C-11.67 14.01 -11.34 13.02 -11 12 C-9.68 12 -8.36 12 -7 12 C-7 11.01 -7 10.02 -7 9 C-6.34 9 -5.68 9 -5 9 C-5 8.01 -5 7.02 -5 6 C-4.34 6 -3.68 6 -3 6 C-3 5.34 -3 4.68 -3 4 C-2.34 4 -1.68 4 -1 4 C-0.67 2.68 -0.34 1.36 0 0 Z " fill="#4E7DBD" transform="translate(554,663)"/>
<path d="M0 0 C-0.99 0.495 -0.99 0.495 -2 1 C-2 1.66 -2 2.32 -2 3 C-3.4562545 3.67119549 -4.91507867 4.33681807 -6.375 5 C-7.59316406 5.556875 -7.59316406 5.556875 -8.8359375 6.125 C-11 7 -11 7 -13 7 C-13.226875 7.78375 -13.45375 8.5675 -13.6875 9.375 C-15 12 -15 12 -17.5625 13.1875 C-18.366875 13.455625 -19.17125 13.72375 -20 14 C-20.33 14.66 -20.66 15.32 -21 16 C-21.66 15.34 -22.32 14.68 -23 14 C-22.34 14 -21.68 14 -21 14 C-20.7525 13.38125 -20.505 12.7625 -20.25 12.125 C-18.79371361 9.64931313 -17.62187494 9.04874998 -15 8 C-15 7.34 -15 6.68 -15 6 C-12.98828125 4.4921875 -12.98828125 4.4921875 -10.3125 2.875 C-9.44238281 2.33617187 -8.57226562 1.79734375 -7.67578125 1.2421875 C-4.84576747 -0.07159992 -3.0766773 -0.25500388 0 0 Z " fill="#4672B4" transform="translate(412,511)"/>
<path d="M0 0 C1.65 0 3.3 0 5 0 C5 0.66 5 1.32 5 2 C15.56 2 26.12 2 37 2 C37 2.33 37 2.66 37 3 C28.72220459 5.18144256 20.51625723 5.47251492 12 5 C11.67 4.67 11.34 4.34 11 4 C9.65252916 3.76924918 8.29622435 3.58846937 6.9375 3.4375 C5.638125 3.293125 4.33875 3.14875 3 3 C3 2.34 3 1.68 3 1 C2.01 0.67 1.02 0.34 0 0 Z " fill="#718FBA" transform="translate(357,425)"/>
<path d="M0 0 C0 0.66 0 1.32 0 2 C-0.92683594 2.06058594 -1.85367188 2.12117187 -2.80859375 2.18359375 C-4.00613281 2.26738281 -5.20367187 2.35117187 -6.4375 2.4375 C-7.63246094 2.51871094 -8.82742188 2.59992187 -10.05859375 2.68359375 C-12.88570244 2.67656114 -12.88570244 2.67656114 -14 4 C-16.83972535 4.32351301 -19.68073737 4.5130429 -22.53125 4.71875 C-24.9413605 4.73385265 -24.9413605 4.73385265 -26 6 C-27.68608966 6.07205511 -29.37500659 6.08386068 -31.0625 6.0625 C-31.98160156 6.05347656 -32.90070313 6.04445313 -33.84765625 6.03515625 C-34.55792969 6.02355469 -35.26820313 6.01195312 -36 6 C-36 5.67 -36 5.34 -36 5 C-23.91510646 1.95398346 -12.52424826 -0.23630657 0 0 Z " fill="#295185" transform="translate(504,546)"/>
<path d="M0 0 C0.33 0 0.66 0 1 0 C1.33 2.64 1.66 5.28 2 8 C2.66 7.67 3.32 7.34 4 7 C4 12.61 4 18.22 4 24 C3.34 24.33 2.68 24.66 2 25 C0.0830427 19.37742839 -0.24889924 14.47630615 -0.125 8.5625 C-0.11597656 7.73556641 -0.10695313 6.90863281 -0.09765625 6.05664062 C-0.07431512 4.03763292 -0.03845288 2.01877644 0 0 Z " fill="#275AAB" transform="translate(579,409)"/>
<path d="M0 0 C0.66 0.33 1.32 0.66 2 1 C2.625 3.0625 2.625 3.0625 3 5 C2.401875 5.226875 1.80375 5.45375 1.1875 5.6875 C-1.18844156 6.876424 -1.18844156 6.876424 -2.4375 9.4375 C-4 12 -4 12 -6.5625 13.5 C-9.50962161 15.3136133 -10.03272384 16.74643472 -11 20 C-11.66 20 -12.32 20 -13 20 C-13 19.01 -13 18.02 -13 17 C-12.34 17 -11.68 17 -11 17 C-10.7834375 16.071875 -10.7834375 16.071875 -10.5625 15.125 C-10 13 -10 13 -9 11 C-8.34 11 -7.68 11 -7 11 C-7 10.34 -7 9.68 -7 9 C-6.34 9 -5.68 9 -5 9 C-4.731875 8.071875 -4.46375 7.14375 -4.1875 6.1875 C-3.08851629 3.23759634 -2.37581439 1.94384814 0 0 Z " fill="#527FBF" transform="translate(585,622)"/>
<path d="M0 0 C0.99 0.33 1.98 0.66 3 1 C2.34 2.32 1.68 3.64 1 5 C1.66 5.33 2.32 5.66 3 6 C2.67 6.99 2.34 7.98 2 9 C2 8.34 2 7.68 2 7 C-0.50965614 7.70339566 -0.50965614 7.70339566 -3 9 C-3.59070014 10.94603274 -3.59070014 10.94603274 -4 13 C-6.0625 14.75 -6.0625 14.75 -8 16 C-8.66 15.67 -9.32 15.34 -10 15 C-10 14.34 -10 13.68 -10 13 C-9.34 13 -8.68 13 -8 13 C-7.79375 12.34 -7.5875 11.68 -7.375 11 C-5.48847129 6.88393737 -2.79432021 3.5412297 0 0 Z " fill="#4979BB" transform="translate(677,500)"/>
<path d="M0 0 C1.32 0 2.64 0 4 0 C4 0.66 4 1.32 4 2 C3.01 2 2.02 2 1 2 C0.67 2.99 0.34 3.98 0 5 C-2.73046875 6.5703125 -2.73046875 6.5703125 -6.1875 8.125 C-7.31542969 8.64320313 -8.44335938 9.16140625 -9.60546875 9.6953125 C-12.78500036 10.91736493 -15.6308444 11.58077275 -19 12 C-19 11.34 -19 10.68 -19 10 C-17.58774074 9.32404685 -16.16997095 8.65959941 -14.75 8 C-13.56664062 7.443125 -13.56664062 7.443125 -12.359375 6.875 C-10 6 -10 6 -6 6 C-6 5.01 -6 4.02 -6 3 C-4.02 3 -2.04 3 0 3 C0 2.01 0 1.02 0 0 Z " fill="#4D6B97" transform="translate(550,531)"/>
<path d="M0 0 C1.32 0 2.64 0 4 0 C4 0.66 4 1.32 4 2 C4.763125 2.268125 5.52625 2.53625 6.3125 2.8125 C8.90483979 3.95795247 10.30075537 4.76415181 12 7 C12 7.99 12 8.98 12 10 C12.99 10 13.98 10 15 10 C15.33 12.31 15.66 14.62 16 17 C15.34 17.33 14.68 17.66 14 18 C13.32880451 16.5437455 12.66318193 15.08492133 12 13.625 C11.62875 12.81289063 11.2575 12.00078125 10.875 11.1640625 C10 9 10 9 10 7 C9.4225 6.855625 8.845 6.71125 8.25 6.5625 C7.5075 6.376875 6.765 6.19125 6 6 C5.29875 5.9175 4.5975 5.835 3.875 5.75 C2 5 2 5 0.75 2.4375 C0.5025 1.633125 0.255 0.82875 0 0 Z " fill="#3C67AF" transform="translate(704,494)"/>
<path d="M0 0 C0.33 0 0.66 0 1 0 C1.1875 2.8125 1.1875 2.8125 1 6 C-0.3125 7.5 -0.3125 7.5 -2 9 C-3.04622875 10.97620986 -4.05439935 12.9737129 -5 15 C-5.66 15 -6.32 15 -7 15 C-7 15.66 -7 16.32 -7 17 C-7.66 17 -8.32 17 -9 17 C-8.67 14.03 -8.34 11.06 -8 8 C-6.02 8.495 -6.02 8.495 -4 9 C-3.8453125 8.1646875 -3.8453125 8.1646875 -3.6875 7.3125 C-2.86410318 4.54289253 -1.59831722 2.39747583 0 0 Z " fill="#4067A0" transform="translate(669,584)"/>
<path d="M0 0 C0.33 0 0.66 0 1 0 C1.05827558 3.5624308 1.09368885 7.12473819 1.125 10.6875 C1.14175781 11.69490234 1.15851562 12.70230469 1.17578125 13.74023438 C1.18222656 14.71669922 1.18867187 15.69316406 1.1953125 16.69921875 C1.20578613 17.59471436 1.21625977 18.49020996 1.22705078 19.4128418 C0.97703456 22.26168257 0.18016512 24.40894543 -1 27 C-1.66 27 -2.32 27 -3 27 C-3 28.65 -3 30.3 -3 32 C-3.99 32.495 -3.99 32.495 -5 33 C-4.505 28.545 -4.505 28.545 -4 24 C-3.34 24 -2.68 24 -2 24 C-2.020625 22.865625 -2.04125 21.73125 -2.0625 20.5625 C-2 17 -2 17 -1 16 C-0.76321284 13.30764224 -0.57801975 10.63501844 -0.4375 7.9375 C-0.37272461 6.79958008 -0.37272461 6.79958008 -0.30664062 5.63867188 C-0.20026367 3.75934562 -0.09960066 1.87969756 0 0 Z " fill="#258160" transform="translate(747,370)"/>
<path d="M0 0 C1.32 0.33 2.64 0.66 4 1 C3.21753906 1.98742187 2.43507813 2.97484375 1.62890625 3.9921875 C0.60667786 5.28638491 -0.41545247 6.58065976 -1.4375 7.875 C-1.95376953 8.52597656 -2.47003906 9.17695312 -3.00195312 9.84765625 C-3.49501953 10.47285156 -3.98808594 11.09804688 -4.49609375 11.7421875 C-4.95169678 12.3182373 -5.4072998 12.89428711 -5.87670898 13.48779297 C-7.08182163 15.01835651 -7.08182163 15.01835651 -8 17 C-8.66 17 -9.32 17 -10 17 C-10.33 17.66 -10.66 18.32 -11 19 C-10.67 17.02 -10.34 15.04 -10 13 C-9.01 12.67 -8.02 12.34 -7 12 C-6.67 10.35 -6.34 8.7 -6 7 C-5.01 6.67 -4.02 6.34 -3 6 C-1.29144978 2.99992729 -1.29144978 2.99992729 0 0 Z " fill="#496EA1" transform="translate(710,531)"/>
<path d="M0 0 C2.92090003 1.30936898 4.75619462 2.75619462 7 5 C7.99 5.33 8.98 5.66 10 6 C10.33 6.66 10.66 7.32 11 8 C13.02463255 8.65213292 13.02463255 8.65213292 15 9 C15.103125 9.639375 15.20625 10.27875 15.3125 10.9375 C15.539375 11.618125 15.76625 12.29875 16 13 C16.99 13.33 17.98 13.66 19 14 C17 15 17 15 15.0625 14.75 C12.6956089 13.88931233 11.56539031 12.95673789 10 11 C10 10.34 10 9.68 10 9 C9.34 9 8.68 9 8 9 C8 8.34 8 7.68 8 7 C6.68 7 5.36 7 4 7 C4 6.34 4 5.68 4 5 C3.34 5 2.68 5 2 5 C2 4.34 2 3.68 2 3 C1.34 3 0.68 3 0 3 C0 2.01 0 1.02 0 0 Z " fill="#4D74B2" transform="translate(338,410)"/>
<path d="M0 0 C2.16874252 0.50603992 3.99967627 0.99983813 6 2 C6 2.99 6 3.98 6 5 C6.66 5 7.32 5 8 5 C8.33 6.32 8.66 7.64 9 9 C9.99 9 10.98 9 12 9 C12.99 11.64 13.98 14.28 15 17 C14.34 17 13.68 17 13 17 C13 16.34 13 15.68 13 15 C12.34 15 11.68 15 11 15 C11 14.34 11 13.68 11 13 C10.34 13 9.68 13 9 13 C5 7.70588235 5 7.70588235 5 4 C2.525 3.01 2.525 3.01 0 2 C0 1.34 0 0.68 0 0 Z " fill="#4B75B5" transform="translate(443,651)"/>
<path d="M0 0 C0.33 0 0.66 0 1 0 C1 2.64 1 5.28 1 8 C0.34 8 -0.32 8 -1 8 C-0.97679687 8.96421875 -0.95359375 9.9284375 -0.9296875 10.921875 C-0.91164063 12.18515625 -0.89359375 13.4484375 -0.875 14.75 C-0.85179687 16.00296875 -0.82859375 17.2559375 -0.8046875 18.546875 C-0.98462698 21.72820492 -1.31001418 23.36521896 -3 26 C-4.1898306 23.6203388 -4.13349966 22.08514265 -4.125 19.4375 C-4.12886719 18.22900391 -4.12886719 18.22900391 -4.1328125 16.99609375 C-4 15 -4 15 -3 14 C-2.6279752 12.4043624 -2.30180201 10.79789665 -2 9.1875 C-1.41570087 6.09710537 -0.79460128 3.04360667 0 0 Z " fill="#6C91C8" transform="translate(380,538)"/>
<path d="M0 0 C2.31 0 4.62 0 7 0 C6.34 0.99 5.68 1.98 5 3 C2.15220653 3.33312698 -0.52132225 3.51272655 -3.375 3.5625 C-9.93821228 3.7094683 -9.93821228 3.7094683 -16 6 C-18.796875 5.9765625 -18.796875 5.9765625 -21.75 5.625 C-23.22726562 5.45871094 -23.22726562 5.45871094 -24.734375 5.2890625 C-25.85585938 5.14597656 -25.85585938 5.14597656 -27 5 C-27 4.67 -27 4.34 -27 4 C-22.71 4 -18.42 4 -14 4 C-14 3.34 -14 2.68 -14 2 C-9.38 2 -4.76 2 0 2 C0 1.34 0 0.68 0 0 Z " fill="#2C5EA7" transform="translate(458,503)"/>
<path d="M0 0 C2.97 0.495 2.97 0.495 6 1 C6 1.66 6 2.32 6 3 C6.9590625 3.1546875 6.9590625 3.1546875 7.9375 3.3125 C8.618125 3.539375 9.29875 3.76625 10 4 C10.33 4.99 10.66 5.98 11 7 C11.66 7.33 12.32 7.66 13 8 C14.1875 9.875 14.1875 9.875 15 12 C14.67 12.99 14.34 13.98 14 15 C12 14 12 14 10.6875 11.6875 C8.82652001 8.72371705 6.73138124 7.14081233 4 5 C4 4.34 4 3.68 4 3 C3.34 3 2.68 3 2 3 C2 2.34 2 1.68 2 1 C1.34 0.67 0.68 0.34 0 0 Z " fill="#4874B2" transform="translate(471,684)"/>
<path d="M0 0 C0.33 1.32 0.66 2.64 1 4 C1.66 4 2.32 4 3 4 C7.59225513 13.41002278 7.59225513 13.41002278 7 18 C6.34 18 5.68 18 5 18 C4.54625 16.865625 4.0925 15.73125 3.625 14.5625 C2.42904194 10.95278308 2.42904194 10.95278308 0 10 C0 6.7 0 3.4 0 0 Z " fill="#3662A6" transform="translate(572,389)"/>
<path d="M0 0 C0.99 0.33 1.98 0.66 3 1 C1.7260411 3.03833424 0.38938077 5.03852126 -1 7 C-1.66 7 -2.32 7 -3 7 C-3 8.32 -3 9.64 -3 11 C-3.66 11 -4.32 11 -5 11 C-5.33 12.65 -5.66 14.3 -6 16 C-6.33 16 -6.66 16 -7 16 C-6.97061497 9.52060152 -5.80173678 5.90956687 -1.27734375 1.21484375 C-0.64505859 0.61349609 -0.64505859 0.61349609 0 0 Z " fill="#2F916D" transform="translate(728,421)"/>
<path d="M0 0 C0.66 0 1.32 0 2 0 C2 0.66 2 1.32 2 2 C1.34 2 0.68 2 0 2 C-0.2475 2.969375 -0.495 3.93875 -0.75 4.9375 C-1.1625 5.948125 -1.575 6.95875 -2 8 C-4.125 8.875 -4.125 8.875 -6 9 C-6.33 10.32 -6.66 11.64 -7 13 C-7.99 13 -8.98 13 -10 13 C-10 13.66 -10 14.32 -10 15 C-10.66 14.67 -11.32 14.34 -12 14 C-11.67 13.34 -11.34 12.68 -11 12 C-10.34 12 -9.68 12 -9 12 C-8.9175 11.4225 -8.835 10.845 -8.75 10.25 C-7.78202213 7.3460664 -6.31305716 5.96259396 -4 4 C-3.34 4 -2.68 4 -2 4 C-1.34 2.68 -0.68 1.36 0 0 Z " fill="#2E9F76" transform="translate(665,340)"/>
<path d="M0 0 C0.66 0 1.32 0 2 0 C2 0.66 2 1.32 2 2 C2.66 2 3.32 2 4 2 C4 3.32 4 4.64 4 6 C4.66 6 5.32 6 6 6 C6 6.99 6 7.98 6 9 C6.66 9 7.32 9 8 9 C8 10.32 8 11.64 8 13 C10.475 13.99 10.475 13.99 13 15 C13 15.66 13 16.32 13 17 C12.01 17.33 11.02 17.66 10 18 C9.01 17.34 8.02 16.68 7 16 C6.8125 13.375 6.8125 13.375 7 11 C6.34 11 5.68 11 5 11 C5 9.68 5 8.36 5 7 C4.34 7 3.68 7 3 7 C3 6.01 3 5.02 3 4 C2.01 3.67 1.02 3.34 0 3 C0 2.01 0 1.02 0 0 Z " fill="#406AA8" transform="translate(411,338)"/>
<path d="M0 0 C0.99 0.66 1.98 1.32 3 2 C2.04956626 3.33897583 1.08940853 4.67105427 0.125 6 C-0.40867187 6.7425 -0.94234375 7.485 -1.4921875 8.25 C-1.98976563 8.8275 -2.48734375 9.405 -3 10 C-3.66 10 -4.32 10 -5 10 C-5.2165625 10.928125 -5.2165625 10.928125 -5.4375 11.875 C-6 14 -6 14 -7 16 C-7.66 16 -8.32 16 -9 16 C-8.7452486 14.68428397 -8.47065859 13.37239624 -8.1875 12.0625 C-8.03667969 11.33160156 -7.88585937 10.60070312 -7.73046875 9.84765625 C-7.48941406 9.23792969 -7.24835937 8.62820313 -7 8 C-6.01 7.67 -5.02 7.34 -4 7 C-2.77554716 5.37051936 -2.77554716 5.37051936 -1.8125 3.4375 C-1.214375 2.303125 -0.61625 1.16875 0 0 Z " fill="#4F72AC" transform="translate(637,627)"/>
<path d="M0 0 C0.33 0.66 0.66 1.32 1 2 C1.66 2 2.32 2 3 2 C3 2.66 3 3.32 3 4 C3.66 4 4.32 4 5 4 C5 5.32 5 6.64 5 8 C5.66 8 6.32 8 7 8 C7 8.66 7 9.32 7 10 C7.66 10 8.32 10 9 10 C9 10.66 9 11.32 9 12 C9.66 12.33 10.32 12.66 11 13 C9.68 13 8.36 13 7 13 C7.33 13.99 7.66 14.98 8 16 C7.34 16 6.68 16 6 16 C6 14.02 6 12.04 6 10 C5.34 10 4.68 10 4 10 C4 9.34 4 8.68 4 8 C3.34 8 2.68 8 2 8 C2 6.68 2 5.36 2 4 C1.34 4 0.68 4 0 4 C0 2.68 0 1.36 0 0 Z " fill="#3764AB" transform="translate(446,581)"/>
<path d="M0 0 C0.625 1.8125 0.625 1.8125 1 4 C0.01 5.485 0.01 5.485 -1 7 C-1.99 7 -2.98 7 -4 7 C-4 7.66 -4 8.32 -4 9 C-3.34 9.33 -2.68 9.66 -2 10 C-2.99 10 -3.98 10 -5 10 C-5 10.99 -5 11.98 -5 13 C-5.99 13 -6.98 13 -8 13 C-8 13.66 -8 14.32 -8 15 C-8.66 14.67 -9.32 14.34 -10 14 C-9.67 13.01 -9.34 12.02 -9 11 C-8.01 11 -7.02 11 -6 11 C-5.7834375 9.824375 -5.7834375 9.824375 -5.5625 8.625 C-5 6 -5 6 -4 4 C-3.34 4 -2.68 4 -2 4 C-1.34 2.68 -0.68 1.36 0 0 Z " fill="#4F7CBC" transform="translate(342,340)"/>
<path d="M0 0 C0.33 0 0.66 0 1 0 C1 7.59 1 15.18 1 23 C-2.39345951 16.21308098 -3.1516825 10.33721804 -1 2.875 C-0.67 1.92625 -0.34 0.9775 0 0 Z " fill="#B4E3D2" transform="translate(645,371)"/>
<path d="M0 0 C0.33 0.99 0.66 1.98 1 3 C0.34 3 -0.32 3 -1 3 C-0.938125 3.928125 -0.87625 4.85625 -0.8125 5.8125 C-1 9 -1 9 -2.25 10.8125 C-4.16591802 12.11258722 -5.72970466 12.60856977 -8 13 C-8 12.01 -8 11.02 -8 10 C-7.34 10 -6.68 10 -6 10 C-5.71125 9.236875 -5.4225 8.47375 -5.125 7.6875 C-4 5 -4 5 -2 2 C-1.34 2 -0.68 2 0 2 C0 1.34 0 0.68 0 0 Z " fill="#4E79B9" transform="translate(597,606)"/>
<path d="M0 0 C0.66 0.33 1.32 0.66 2 1 C1.55530671 6.03985731 -0.71343362 8.37634988 -4 12 C-4.66 10.68 -5.32 9.36 -6 8 C-4.71937515 6.2925002 -3.38232443 4.62626404 -2 3 C-1.34 3 -0.68 3 0 3 C0 2.01 0 1.02 0 0 Z " fill="#4972BB" transform="translate(631,561)"/>
<path d="M0 0 C0.66 0.33 1.32 0.66 2 1 C0.71656721 3.00573682 -0.5760369 5.00436119 -1.875 7 C-2.23980469 7.57234375 -2.60460937 8.1446875 -2.98046875 8.734375 C-3.93474767 10.19181916 -4.96277587 11.60037225 -6 13 C-6.66 13 -7.32 13 -8 13 C-7.67 11.35 -7.34 9.7 -7 8 C-6.34 8 -5.68 8 -5 8 C-5 6.68 -5 5.36 -5 4 C-4.01 4 -3.02 4 -2 4 C-1.67 3.01 -1.34 2.02 -1 1 C-0.67 0.67 -0.34 0.34 0 0 Z " fill="#4B70A5" transform="translate(695,552)"/>
<path d="M0 0 C0.66 0 1.32 0 2 0 C2 0.66 2 1.32 2 2 C2.99 2.33 3.98 2.66 5 3 C5.309375 3.99 5.61875 4.98 5.9375 6 C6.288125 6.99 6.63875 7.98 7 9 C9.03243548 9.96877057 9.03243548 9.96877057 11 10 C10.67 11.65 10.34 13.3 10 15 C9.34 15 8.68 15 8 15 C8 13.68 8 12.36 8 11 C7.34 11 6.68 11 6 11 C4.5393715 8.35261084 4 7.10551666 4 4 C3.01 4 2.02 4 1 4 C0.67 2.68 0.34 1.36 0 0 Z " fill="#359F78" transform="translate(676,442)"/>
<path d="M0 0 C0 0.66 0 1.32 0 2 C-1.32 2 -2.64 2 -4 2 C-4 2.66 -4 3.32 -4 4 C-10.93 4 -17.86 4 -25 4 C-25 3.67 -25 3.34 -25 3 C-19.39 3 -13.78 3 -8 3 C-8 2.34 -8 1.68 -8 1 C-2.25 0 -2.25 0 0 0 Z " fill="#315C94" transform="translate(552,742)"/>
<path d="M0 0 C-1.2791155 3.83734649 -2.78875494 4.48165136 -6.2109375 6.34765625 C-8 7 -8 7 -10.4375 6.25 C-10.953125 5.8375 -11.46875 5.425 -12 5 C-10.68 5 -9.36 5 -8 5 C-8 4.01 -8 3.02 -8 2 C-4.77208445 -0.1519437 -3.71599191 -0.20086443 0 0 Z " fill="#3F639B" transform="translate(408,418)"/>
<path d="M0 0 C0.33 0 0.66 0 1 0 C2.38529821 5.45461169 3.2396943 10.36718401 3 16 C3.99 16.33 4.98 16.66 6 17 C6.33 18.65 6.66 20.3 7 22 C5.5 20.625 5.5 20.625 4 19 C4 18.34 4 17.68 4 17 C3.34 17 2.68 17 2 17 C-0.01167675 11.21642935 -0.22084624 6.09781001 0 0 Z " fill="#4974B2" transform="translate(378,560)"/>
<path d="M0 0 C-4.96993194 2.43425238 -8.34605369 3.34615998 -14 3 C-14 2.01 -14 1.02 -14 0 C-12.2300132 -0.19532961 -10.45895721 -0.38098882 -8.6875 -0.5625 C-7.70136719 -0.66691406 -6.71523438 -0.77132813 -5.69921875 -0.87890625 C-3 -1 -3 -1 0 0 Z " fill="#517BBC" transform="translate(496,498)"/>
<path d="M0 0 C0.99 0 1.98 0 3 0 C3.66 1.65 4.32 3.3 5 5 C5.66 5 6.32 5 7 5 C7.33 6.98 7.66 8.96 8 11 C7.34 11 6.68 11 6 11 C4.74609375 9.609375 4.74609375 9.609375 3.4375 7.75 C3.00308594 7.14671875 2.56867187 6.5434375 2.12109375 5.921875 C0.96744258 3.94418728 0.44027221 2.23598922 0 0 Z " fill="#329973" transform="translate(653,406)"/>
<path d="M0 0 C1.32 0.33 2.64 0.66 4 1 C3.195625 1.763125 2.39125 2.52625 1.5625 3.3125 C-1.16799024 5.79430898 -1.16799024 5.79430898 -2 9 C-2.66 9 -3.32 9 -4 9 C-4.33 9.66 -4.66 10.32 -5 11 C-4.67 8.69 -4.34 6.38 -4 4 C-3.34 4 -2.68 4 -2 4 C-1.34 2.68 -0.68 1.36 0 0 Z " fill="#4B6DA1" transform="translate(645,617)"/>
<path d="M0 0 C1.32 0.33 2.64 0.66 4 1 C4 1.66 4 2.32 4 3 C4.99 3.33 5.98 3.66 7 4 C7 4.66 7 5.32 7 6 C7.66 6 8.32 6 9 6 C9.33 7.65 9.66 9.3 10 11 C9.34 11 8.68 11 8 11 C4 6.52941176 4 6.52941176 4 4 C3.34 4 2.68 4 2 4 C2 3.34 2 2.68 2 2 C1.34 2 0.68 2 0 2 C0 1.34 0 0.68 0 0 Z " fill="#486FAE" transform="translate(412,615)"/>
<path d="M0 0 C0.33 0.66 0.66 1.32 1 2 C2.98 1.67 4.96 1.34 7 1 C3.55384615 5.8 3.55384615 5.8 0.75 6.8125 C-0.11625 6.9053125 -0.11625 6.9053125 -1 7 C-1.625 5.1875 -1.625 5.1875 -2 3 C-1.34 2.01 -0.68 1.02 0 0 Z " fill="#3F66AB" transform="translate(564,515)"/>
<path d="M0 0 C0.33 0.99 0.66 1.98 1 3 C-0.21484375 5.26171875 -0.21484375 5.26171875 -1.9375 7.6875 C-2.78634766 8.89986328 -2.78634766 8.89986328 -3.65234375 10.13671875 C-4.09707031 10.75160156 -4.54179688 11.36648438 -5 12 C-5.66 10.68 -6.32 9.36 -7 8 C-6.34 8 -5.68 8 -5 8 C-4.67 6.68 -4.34 5.36 -4 4 C-3.34 4 -2.68 4 -2 4 C-2 3.01 -2 2.02 -2 1 C-1.34 0.67 -0.68 0.34 0 0 Z " fill="#3A9171" transform="translate(737,409)"/>
<path d="M0 0 C0.33 0 0.66 0 1 0 C1 2.97 1 5.94 1 9 C0.34 9 -0.32 9 -1 9 C-0.9175 9.70125 -0.835 10.4025 -0.75 11.125 C-1.0808255 14.92949327 -2.75313314 16.98077266 -5 20 C-6.41573582 15.75279253 -4.76329613 13.5689976 -2.875 9.6875 C-2.58625 9.130625 -2.2975 8.57375 -2 8 C-1.34 8 -0.68 8 0 8 C0 5.36 0 2.72 0 0 Z " fill="#5C7599" transform="translate(720,511)"/>
<path d="M0 0 C1.7074998 1.28062485 3.37373596 2.61767557 5 4 C5 4.66 5 5.32 5 6 C5.66 6 6.32 6 7 6 C7.99 7.485 7.99 7.485 9 9 C8.67 9.99 8.34 10.98 8 12 C8 11.34 8 10.68 8 10 C7.34 10 6.68 10 6 10 C5.67 9.34 5.34 8.68 5 8 C2.97536745 7.34786708 2.97536745 7.34786708 1 7 C0.67 4.69 0.34 2.38 0 0 Z " fill="#3FA37E" transform="translate(731,343)"/>
<path d="M0 0 C0 0.66 0 1.32 0 2 C-2.0831793 2.16858098 -4.16655044 2.33479255 -6.25 2.5 C-7.41015625 2.5928125 -8.5703125 2.685625 -9.765625 2.78125 C-12.17268658 2.94404644 -14.58743951 3 -17 3 C-16.67 2.34 -16.34 1.68 -16 1 C-10.62136627 0.05638005 -5.45066266 -0.09733326 0 0 Z " fill="#3A5C8D" transform="translate(504,546)"/>
<path d="M0 0 C-2 2 -2 2 -5.0390625 2.1953125 C-6.22242188 2.17210937 -7.40578125 2.14890625 -8.625 2.125 C-9.81351562 2.10695313 -11.00203125 2.08890625 -12.2265625 2.0703125 C-13.14179688 2.04710937 -14.05703125 2.02390625 -15 2 C-15 2.66 -15 3.32 -15 4 C-16.65 4 -18.3 4 -20 4 C-19.67 3.01 -19.34 2.02 -19 1 C-16.77100213 0.83109082 -14.54179338 0.66496313 -12.3125 0.5 C-10.45044922 0.36078125 -10.45044922 0.36078125 -8.55078125 0.21875 C-5.68500671 0.04220063 -2.86900043 -0.04388528 0 0 Z " fill="#B9D2F4" transform="translate(429,507)"/>
<path d="M0 0 C1 2 1 2 0.375 4.25 C-1.42498835 7.84997671 -3.09826297 10.16421153 -6 13 C-9.3125 13.375 -9.3125 13.375 -12 13 C-12 12.67 -12 12.34 -12 12 C-10.35 12 -8.7 12 -7 12 C-7 11.34 -7 10.68 -7 10 C-6.34 10 -5.68 10 -5 10 C-4.731875 9.278125 -4.46375 8.55625 -4.1875 7.8125 C-3.01017502 5.02409874 -1.60854116 2.55904276 0 0 Z " fill="#D2EAE3" transform="translate(707,458)"/>
<path d="M0 0 C0.33 0.66 0.66 1.32 1 2 C1.99 2 2.98 2 4 2 C4.66 3.98 5.32 5.96 6 8 C6.66 8 7.32 8 8 8 C8 8.66 8 9.32 8 10 C8.66 10.33 9.32 10.66 10 11 C7.69 10.67 5.38 10.34 3 10 C3 8.02 3 6.04 3 4 C2.01 4 1.02 4 0 4 C0 2.68 0 1.36 0 0 Z " fill="#4F7AB9" transform="translate(502,646)"/>
<path d="M0 0 C0.66 0 1.32 0 2 0 C0.375 6.75 0.375 6.75 -3 9 C-3.66 8.34 -4.32 7.68 -5 7 C-4.67 6.01 -4.34 5.02 -4 4 C-3.34 4 -2.68 4 -2 4 C-2 3.34 -2 2.68 -2 2 C-1.34 2 -0.68 2 0 2 C0 1.34 0 0.68 0 0 Z " fill="#2C62B1" transform="translate(684,494)"/>
<path d="M0 0 C0.99 0.33 1.98 0.66 3 1 C1.7260411 3.03833424 0.38938077 5.03852126 -1 7 C-1.66 7 -2.32 7 -3 7 C-3 7.66 -3 8.32 -3 9 C-4.98 9 -6.96 9 -9 9 C-9.33 8.01 -9.66 7.02 -10 6 C-9.34 6 -8.68 6 -8 6 C-8 6.66 -8 7.32 -8 8 C-6.68 8 -5.36 8 -4 8 C-3.34 6.02 -2.68 4.04 -2 2 C-1.34 2 -0.68 2 0 2 C0 1.34 0 0.68 0 0 Z " fill="#479277" transform="translate(703,461)"/>
<path d="M0 0 C1.70884005 1.62339805 3.37446717 3.29319053 5 5 C5 5.66 5 6.32 5 7 C5.66 7 6.32 7 7 7 C7 7.66 7 8.32 7 9 C7.66 9 8.32 9 9 9 C9.33 10.32 9.66 11.64 10 13 C9.34 13 8.68 13 8 13 C8 12.01 8 11.02 8 10 C6.68 9.67 5.36 9.34 4 9 C4 8.01 4 7.02 4 6 C3.01 5.67 2.02 5.34 1 5 C0.67 3.35 0.34 1.7 0 0 Z " fill="#C7EEE0" transform="translate(654,410)"/>
<path d="M0 0 C0.33 0.99 0.66 1.98 1 3 C3.64 3.33 6.28 3.66 9 4 C9 4.33 9 4.66 9 5 C7.1746875 5.2165625 7.1746875 5.2165625 5.3125 5.4375 C2.17329623 5.82780953 -0.9075134 6.32351856 -4 7 C-4 6.34 -4 5.68 -4 5 C-3.34 5 -2.68 5 -2 5 C-1.7834375 4.0409375 -1.7834375 4.0409375 -1.5625 3.0625 C-1 1 -1 1 0 0 Z " fill="#2254A5" transform="translate(423,399)"/>
<path d="M0 0 C1.5 1.3125 1.5 1.3125 3 3 C3 3.99 3 4.98 3 6 C3.66 6 4.32 6 5 6 C5 6.66 5 7.32 5 8 C5.66 8 6.32 8 7 8 C7 8.66 7 9.32 7 10 C7.66 10.33 8.32 10.66 9 11 C7.68 11.33 6.36 11.66 5 12 C2.37613513 8.93882432 2 8.26826873 2 4 C1.34 4 0.68 4 0 4 C0 2.68 0 1.36 0 0 Z " fill="#4E78B5" transform="translate(486,627)"/>
<path d="M0 0 C0.33 0.66 0.66 1.32 1 2 C1.66 2.33 2.32 2.66 3 3 C2.01 5.64 1.02 8.28 0 11 C-1.32 10.34 -2.64 9.68 -4 9 C-3.2884375 7.88625 -3.2884375 7.88625 -2.5625 6.75 C-1.22130673 4.38949985 -0.487688 2.63351523 0 0 Z " fill="#4D6EA2" transform="translate(576,499)"/>
<path d="M0 0 C4.455 1.98 4.455 1.98 9 4 C9 4.66 9 5.32 9 6 C10.32 6 11.64 6 13 6 C13 6.66 13 7.32 13 8 C10.75 8.25 10.75 8.25 8 8 C5.9375 6.125 5.9375 6.125 4 4 C1.86690808 2.76487921 1.86690808 2.76487921 0 2 C0 1.34 0 0.68 0 0 Z " fill="#3CA07B" transform="translate(714,332)"/>
<path d="M0 0 C3.28247841 0.87532757 5.50854152 1.50854152 7.9375 3.9375 C8.288125 4.618125 8.63875 5.29875 9 6 C8.67 6.99 8.34 7.98 8 9 C6.62437146 7.71034824 5.29233607 6.37310707 4 5 C4 4.34 4 3.68 4 3 C2.68 2.34 1.36 1.68 0 1 C0 0.67 0 0.34 0 0 Z " fill="#436BAF" transform="translate(511,730)"/>
<path d="M0 0 C0.66 0.33 1.32 0.66 2 1 C1.67 1.66 1.34 2.32 1 3 C0.34 3 -0.32 3 -1 3 C-1.0825 3.598125 -1.165 4.19625 -1.25 4.8125 C-2.20455872 7.5966296 -3.57132271 8.43311142 -6 10 C-6 8.68 -6 7.36 -6 6 C-5.34 5.67 -4.68 5.34 -4 5 C-3.67 4.34 -3.34 3.68 -3 3 C-2 1 -2 1 0 0 Z " fill="#42659E" transform="translate(678,575)"/>
<path d="M0 0 C1.32 0 2.64 0 4 0 C4 0.66 4 1.32 4 2 C3.01 2 2.02 2 1 2 C0.67 2.99 0.34 3.98 0 5 C-1.98 5.33 -3.96 5.66 -6 6 C-6 5.01 -6 4.02 -6 3 C-4.02 3 -2.04 3 0 3 C0 2.01 0 1.02 0 0 Z " fill="#436393" transform="translate(550,531)"/>
<path d="M0 0 C1.98 0 3.96 0 6 0 C6 0.66 6 1.32 6 2 C5 3 4 4 3 5 C2.67 5.99 2.34 6.98 2 8 C1.01 6.35 0.02 4.7 -1 3 C-0.34 3 0.32 3 1 3 C0.67 2.01 0.34 1.02 0 0 Z " fill="#396DBD" transform="translate(495,706)"/>
<path d="M0 0 C0.33 0.66 0.66 1.32 1 2 C0.05439935 4.0262871 -0.95377125 6.02379014 -2 8 C-2.68528045 9.65910004 -3.35891863 11.32332564 -4 13 C-4.66 12.67 -5.32 12.34 -6 12 C-5.67 10.02 -5.34 8.04 -5 6 C-4.34 6 -3.68 6 -3 6 C-3 5.34 -3 4.68 -3 4 C-2.34 4 -1.68 4 -1 4 C-0.67 2.68 -0.34 1.36 0 0 Z " fill="#3C6EB7" transform="translate(554,663)"/>
<path d="M0 0 C2 1 2 1 2 1 Z M-2 1 C-1.01 1.33 -0.02 1.66 1 2 C1.33 4.31 1.66 6.62 2 9 C1.34 9 0.68 9 0 9 C0 8.01 0 7.02 0 6 C-0.66 6 -1.32 6 -2 6 C-2.66 4.68 -3.32 3.36 -4 2 C-3.34 1.67 -2.68 1.34 -2 1 Z " fill="#396AB1" transform="translate(467,672)"/>
<path d="M0 0 C0.33 0 0.66 0 1 0 C1.3125 2.6875 1.3125 2.6875 1 6 C-1.5 8.875 -1.5 8.875 -4 11 C-4.36243301 7.1038451 -4.28893695 5.42874515 -2.0625 2.125 C-1.0415625 1.073125 -1.0415625 1.073125 0 0 Z " fill="#345D99" transform="translate(669,584)"/>
<path d="M0 0 C1 2 1 2 0.3125 4.5625 C-1 7 -1 7 -3.125 7.8125 C-3.74375 7.874375 -4.3625 7.93625 -5 8 C-5 8.66 -5 9.32 -5 10 C-5.66 9.67 -6.32 9.34 -7 9 C-6.67 8.34 -6.34 7.68 -6 7 C-5.34 7 -4.68 7 -4 7 C-3.71125 6.030625 -3.4225 5.06125 -3.125 4.0625 C-2 1 -2 1 0 0 Z " fill="#628AC7" transform="translate(624,571)"/>
<path d="M0 0 C0.99 0 1.98 0 3 0 C1.33333333 3.33333333 -0.33333333 6.66666667 -2 10 C-2.33 10 -2.66 10 -3 10 C-2.67 7.36 -2.34 4.72 -2 2 C-1.34 2 -0.68 2 0 2 C0 1.34 0 0.68 0 0 Z " fill="#5170A3" transform="translate(559,730)"/>
<path d="M0 0 C0.33 0.99 0.66 1.98 1 3 C-0.21484375 4.82421875 -0.21484375 4.82421875 -1.9375 6.6875 C-2.50339844 7.31011719 -3.06929687 7.93273437 -3.65234375 8.57421875 C-4.09707031 9.04472656 -4.54179688 9.51523437 -5 10 C-5.66 9.67 -6.32 9.34 -7 9 C-6.34 7.68 -5.68 6.36 -5 5 C-4.34 5 -3.68 5 -3 5 C-3 4.34 -3 3.68 -3 3 C-2.34 3 -1.68 3 -1 3 C-0.67 2.01 -0.34 1.02 0 0 Z " fill="#D4DFEC" transform="translate(612,665)"/>
<path d="M0 0 C0.66 0 1.32 0 2 0 C2 0.66 2 1.32 2 2 C3.32 1.67 4.64 1.34 6 1 C6.33 3.31 6.66 5.62 7 8 C1.125 3.375 1.125 3.375 0 0 Z " fill="#4EAE8B" transform="translate(686,459)"/>
<path d="M0 0 C0.66 0.33 1.32 0.66 2 1 C1.24163557 2.65161581 0.46787924 4.29617138 -0.3125 5.9375 C-0.95638672 7.31228516 -0.95638672 7.31228516 -1.61328125 8.71484375 C-3 11 -3 11 -6 12 C-6 11.34 -6 10.68 -6 10 C-5.34 10 -4.68 10 -4 10 C-4 8.68 -4 7.36 -4 6 C-3.34 6 -2.68 6 -2 6 C-2 4.68 -2 3.36 -2 2 C-1.34 2 -0.68 2 0 2 C0 1.34 0 0.68 0 0 Z " fill="#53977F" transform="translate(718,438)"/>
<path d="M0 0 C0.99 0 1.98 0 3 0 C3 3.63 3 7.26 3 11 C2.34 10.67 1.68 10.34 1 10 C0.5859375 7.71484375 0.5859375 7.71484375 0.375 4.9375 C0.30023437 4.01839844 0.22546875 3.09929687 0.1484375 2.15234375 C0.09945312 1.44207031 0.05046875 0.73179687 0 0 Z " fill="#5A7DB6" transform="translate(579,407)"/>
<path d="M0 0 C0.99386719 0.00902344 1.98773438 0.01804687 3.01171875 0.02734375 C4.15060547 0.04474609 4.15060547 0.04474609 5.3125 0.0625 C5.3125 0.3925 5.3125 0.7225 5.3125 1.0625 C4.29929687 1.26166016 4.29929687 1.26166016 3.265625 1.46484375 C1.92757813 1.72974609 1.92757813 1.72974609 0.5625 2 C-0.31921875 2.17402344 -1.2009375 2.34804688 -2.109375 2.52734375 C-4.31985053 2.98618488 -6.50262068 3.49586074 -8.6875 4.0625 C-8.6875 3.0725 -8.6875 2.0825 -8.6875 1.0625 C-5.53819107 0.01273036 -3.29935544 -0.03881595 0 0 Z " fill="#6184B4" transform="translate(442.6875,555.9375)"/>
<path d="M0 0 C1.32 0 2.64 0 4 0 C4.103125 0.639375 4.20625 1.27875 4.3125 1.9375 C4.539375 2.618125 4.76625 3.29875 5 4 C5.99 4.33 6.98 4.66 8 5 C6 6 6 6 4 5.875 C2 5 2 5 0.75 2.4375 C0.5025 1.633125 0.255 0.82875 0 0 Z " fill="#5E83BE" transform="translate(349,419)"/>
<path d="M0 0 C0.99 0 1.98 0 3 0 C3.99 2.64 4.98 5.28 6 8 C5.34 8 4.68 8 4 8 C4 7.34 4 6.68 4 6 C3.34 6 2.68 6 2 6 C2 5.34 2 4.68 2 4 C1.34 4 0.68 4 0 4 C0 2.68 0 1.36 0 0 Z " fill="#446DAE" transform="translate(452,660)"/>
<path d="M0 0 C0.99 0 1.98 0 3 0 C2.25 2.9375 2.25 2.9375 1 6 C-1.125 6.875 -1.125 6.875 -3 7 C-2.01 4.69 -1.02 2.38 0 0 Z " fill="#5881C1" transform="translate(563,650)"/>
<path d="M0 0 C1.10844919 3.32534757 0.84454356 5.62182575 0 9 C-2 8 -2 8 -2.8125 5.625 C-3 3 -3 3 -1.5625 1.1875 C-1.046875 0.795625 -0.53125 0.40375 0 0 Z " fill="#3D71BF" transform="translate(605,596)"/>
<path d="M0 0 C1.46726798 3.81489674 0.43336419 6.29011622 -1 10 C-1.66 9.67 -2.32 9.34 -3 9 C-3 7.02 -3 5.04 -3 3 C-2.01 2.67 -1.02 2.34 0 2 C0 1.34 0 0.68 0 0 Z " fill="#3860A6" transform="translate(435,558)"/>
<path d="M0 0 C0.33 0.99 0.66 1.98 1 3 C-1.31 4.98 -3.62 6.96 -6 9 C-5.34 7.02 -4.68 5.04 -4 3 C-3.34 3 -2.68 3 -2 3 C-2 2.34 -2 1.68 -2 1 C-1.34 0.67 -0.68 0.34 0 0 Z " fill="#6688C3" transform="translate(639,552)"/>
<path d="M0 0 C0.66 0 1.32 0 2 0 C0.7175023 2.86095641 -0.45343989 5.11365918 -3 7 C-5.6875 7.1875 -5.6875 7.1875 -8 7 C-7.01 6.67 -6.02 6.34 -5 6 C-5 5.34 -5 4.68 -5 4 C-4.01 4 -3.02 4 -2 4 C-2 3.34 -2 2.68 -2 2 C-1.34 2 -0.68 2 0 2 C0 1.34 0 0.68 0 0 Z " fill="#D8E2ED" transform="translate(559,527)"/>
<path d="M0 0 C0.33 0.66 0.66 1.32 1 2 C1.99 2 2.98 2 4 2 C4.33 4.31 4.66 6.62 5 9 C4.01 9.495 4.01 9.495 3 10 C0.96564469 6.27034861 0 4.33094958 0 0 Z " fill="#4D71AA" transform="translate(715,502)"/>
<path d="M0 0 C0.33 0.66 0.66 1.32 1 2 C1.66 2 2.32 2 3 2 C3 2.99 3 3.98 3 5 C3.99 5 4.98 5 6 5 C6.33 6.65 6.66 8.3 7 10 C5.2925002 8.71937515 3.62626404 7.38232443 2 6 C2 5.34 2 4.68 2 4 C1.34 4 0.68 4 0 4 C0 2.68 0 1.36 0 0 Z " fill="#3BA07A" transform="translate(669,430)"/>
<path d="M0 0 C1.33332095 2.6666419 0.67102033 4.16680303 0 7 C-0.66 7 -1.32 7 -2 7 C-2 7.66 -2 8.32 -2 9 C-2.66 9 -3.32 9 -4 9 C-3.71848913 7.68528432 -3.42446661 6.37324233 -3.125 5.0625 C-2.96257813 4.33160156 -2.80015625 3.60070312 -2.6328125 2.84765625 C-2 1 -2 1 0 0 Z " fill="#2D5594" transform="translate(556,733)"/>
<path d="M0 0 C1.7074998 1.28062485 3.37373596 2.61767557 5 4 C5 4.66 5 5.32 5 6 C5.66 6 6.32 6 7 6 C6.67 6.66 6.34 7.32 6 8 C3.53199953 6.84826645 1.95216435 5.95216435 0 4 C0 2.68 0 1.36 0 0 Z " fill="#567BB2" transform="translate(522,670)"/>
<path d="M0 0 C0.66 0.33 1.32 0.66 2 1 C1.67 2.32 1.34 3.64 1 5 C0.34 5 -0.32 5 -1 5 C-1.66 6.32 -2.32 7.64 -3 9 C-3.66 8.34 -4.32 7.68 -5 7 C-3.625 5 -3.625 5 -2 3 C-1.34 3 -0.68 3 0 3 C0 2.01 0 1.02 0 0 Z " fill="#365C9C" transform="translate(627,640)"/>
<path d="M0 0 C0.66 0.33 1.32 0.66 2 1 C2.625 3.0625 2.625 3.0625 3 5 C1.35 5.66 -0.3 6.32 -2 7 C-2.125 4.625 -2.125 4.625 -2 2 C-1.34 1.34 -0.68 0.68 0 0 Z " fill="#436FB9" transform="translate(585,622)"/>
<path d="M0 0 C1 3 1 3 0.375 5.0625 C-1.40232276 7.56690935 -3.1198813 8.09048883 -6 9 C-5.34 7.68 -4.68 6.36 -4 5 C-3.34 5 -2.68 5 -2 5 C-1.855625 4.360625 -1.71125 3.72125 -1.5625 3.0625 C-1 1 -1 1 0 0 Z " fill="#DEE9F6" transform="translate(645,621)"/>
<path d="M0 0 C0.33 0.66 0.66 1.32 1 2 C1.66 2 2.32 2 3 2 C3 2.66 3 3.32 3 4 C3.66 4 4.32 4 5 4 C5 5.32 5 6.64 5 8 C4.01 8 3.02 8 2 8 C2 6.68 2 5.36 2 4 C1.34 4 0.68 4 0 4 C0 2.68 0 1.36 0 0 Z " fill="#587CB5" transform="translate(446,581)"/>
<path d="M0 0 C1.32 0 2.64 0 4 0 C3.34 1.65 2.68 3.3 2 5 C1.01 5 0.02 5 -1 5 C-0.67 3.35 -0.34 1.7 0 0 Z " fill="#369B77" transform="translate(706,453)"/>
<path d="M0 0 C3.63 1.32 7.26 2.64 11 4 C11 4.33 11 4.66 11 5 C9.02 5.33 7.04 5.66 5 6 C4.67 5.34 4.34 4.68 4 4 C1.98330173 2.86649466 1.98330173 2.86649466 0 2 C0 1.34 0 0.68 0 0 Z " fill="#557EBA" transform="translate(533,359)"/>
<path d="M0 0 C0.33 0.66 0.66 1.32 1 2 C1.99 2 2.98 2 4 2 C4 3.32 4 4.64 4 6 C3.34 6 2.68 6 2 6 C2 5.34 2 4.68 2 4 C0.68 3.67 -0.64 3.34 -2 3 C-2 2.34 -2 1.68 -2 1 C-1.34 0.67 -0.68 0.34 0 0 Z " fill="#179468" transform="translate(738,353)"/>
<path d="M0 0 C1.98 0.495 1.98 0.495 4 1 C3.67 2.32 3.34 3.64 3 5 C1.68 5 0.36 5 -1 5 C-0.67 3.35 -0.34 1.7 0 0 Z " fill="#4878C1" transform="translate(569,642)"/>
<path d="M0 0 C0.66 0 1.32 0 2 0 C2 0.66 2 1.32 2 2 C2.66 2 3.32 2 4 2 C4 2.66 4 3.32 4 4 C4.66 4 5.32 4 6 4 C6 4.66 6 5.32 6 6 C4.02 6 2.04 6 0 6 C0 4.02 0 2.04 0 0 Z " fill="#305EA6" transform="translate(480,623)"/>
<path d="M0 0 C0.625 1.8125 0.625 1.8125 1 4 C0.01 5.485 0.01 5.485 -1 7 C-1.66 7 -2.32 7 -3 7 C-3.33 7.66 -3.66 8.32 -4 9 C-3.67 7.02 -3.34 5.04 -3 3 C-2.01 2.67 -1.02 2.34 0 2 C0 1.34 0 0.68 0 0 Z " fill="#3E619B" transform="translate(703,541)"/>
<path d="M0 0 C0.33 0.99 0.66 1.98 1 3 C-1.3125 6.1875 -1.3125 6.1875 -4 9 C-4.66 9 -5.32 9 -6 9 C-4.47291037 5.56404834 -2.40072955 2.88087546 0 0 Z " fill="#DFEAF5" transform="translate(710,536)"/>
<path d="M0 0 C0.33 0 0.66 0 1 0 C1 3.3 1 6.6 1 10 C0.01 10.495 0.01 10.495 -1 11 C-2.23076923 4.6 -2.23076923 4.6 -1.0625 1.5625 C-0.711875 1.046875 -0.36125 0.53125 0 0 Z " fill="#6087BF" transform="translate(331,355)"/>
<path d="M0 0 C0.33 0 0.66 0 1 0 C1 1.65 1 3.3 1 5 C-0.32 5.33 -1.64 5.66 -3 6 C-3 6.66 -3 7.32 -3 8 C-3.66 7.67 -4.32 7.34 -5 7 C-4.67 6.34 -4.34 5.68 -4 5 C-3.34 5 -2.68 5 -2 5 C-1.7834375 4.0409375 -1.7834375 4.0409375 -1.5625 3.0625 C-1 1 -1 1 0 0 Z " fill="#55B490" transform="translate(658,347)"/>
<path d="M0 0 C0.99 0 1.98 0 3 0 C3 0.66 3 1.32 3 2 C3.66 2 4.32 2 5 2 C5 2.66 5 3.32 5 4 C4.34 4 3.68 4 3 4 C3 4.66 3 5.32 3 6 C2.34 6 1.68 6 1 6 C0.67 4.02 0.34 2.04 0 0 Z " fill="#2E5CA7" transform="translate(587,688)"/>
<path d="M0 0 C-0.25 1.875 -0.25 1.875 -1 4 C-3.0625 5.25 -3.0625 5.25 -5 6 C-5 4.35 -5 2.7 -5 1 C-2 0 -2 0 0 0 Z " fill="#496A9F" transform="translate(598,683)"/>
<path d="M0 0 C0.33 0 0.66 0 1 0 C1 1.98 1 3.96 1 6 C0.360625 6.103125 -0.27875 6.20625 -0.9375 6.3125 C-1.618125 6.539375 -2.29875 6.76625 -3 7 C-3.33 7.99 -3.66 8.98 -4 10 C-4 8.68 -4 7.36 -4 6 C-3.34 6 -2.68 6 -2 6 C-1.34 4.02 -0.68 2.04 0 0 Z " fill="#537BC0" transform="translate(386,528)"/>
<path d="M0 0 C0.33 0.99 0.66 1.98 1 3 C-0.4375 5.6875 -0.4375 5.6875 -2 8 C-2.99 7.67 -3.98 7.34 -5 7 C-3.35 4.69 -1.7 2.38 0 0 Z " fill="#6788C9" transform="translate(662,520)"/>
<path d="M0 0 C2 2 2 2 3 4 C2.34 4 1.68 4 1 4 C1 5.32 1 6.64 1 8 C0.01 7.67 -0.98 7.34 -2 7 C-1.34 4.69 -0.68 2.38 0 0 Z " fill="#34579B" transform="translate(572,506)"/>
<path d="M0 0 C0.66 0 1.32 0 2 0 C2 0.66 2 1.32 2 2 C2.66 2 3.32 2 4 2 C4 3.32 4 4.64 4 6 C4.66 6 5.32 6 6 6 C6 6.99 6 7.98 6 9 C3 8 3 8 2.05078125 6.15234375 C1.80714844 5.42144531 1.56351563 4.69054687 1.3125 3.9375 C1.06113281 3.20402344 0.80976562 2.47054688 0.55078125 1.71484375 C0.36902344 1.14894531 0.18726563 0.58304687 0 0 Z " fill="#567AAE" transform="translate(565,380)"/>
<path d="M0 0 C0.66 0 1.32 0 2 0 C3.125 3.3125 3.125 3.3125 4 7 C3.01 8.485 3.01 8.485 2 10 C1.34 6.7 0.68 3.4 0 0 Z " fill="#379D78" transform="translate(744,363)"/>
<path d="M0 0 C0.66 0 1.32 0 2 0 C1.67 1.32 1.34 2.64 1 4 C0.01 4 -0.98 4 -2 4 C-2 4.66 -2 5.32 -2 6 C-2.99 6 -3.98 6 -5 6 C-4.67 5.01 -4.34 4.02 -4 3 C-2.68 3 -1.36 3 0 3 C0 2.01 0 1.02 0 0 Z " fill="#5A80B8" transform="translate(547,672)"/>
<path d="M0 0 C4.875 4.75 4.875 4.75 6 7 C4.35 6.67 2.7 6.34 1 6 C0.67 4.02 0.34 2.04 0 0 Z " fill="#567FBC" transform="translate(516,663)"/>
<path d="M0 0 C1 2 1 2 0.3125 4.5625 C-0.120625 5.366875 -0.55375 6.17125 -1 7 C-2.32 7.33 -3.64 7.66 -5 8 C-3.35 5.36 -1.7 2.72 0 0 Z " fill="#365996" transform="translate(651,609)"/>
<path d="M0 0 C0.66 0 1.32 0 2 0 C1.6875 2.375 1.6875 2.375 1 5 C0.01 5.66 -0.98 6.32 -2 7 C-1.125 2.25 -1.125 2.25 0 0 Z " fill="#3968B0" transform="translate(642,547)"/>
<path d="M0 0 C1.32 0 2.64 0 4 0 C3.34 1.32 2.68 2.64 2 4 C1.01 4 0.02 4 -1 4 C-1.33 3.34 -1.66 2.68 -2 2 C-1.34 2 -0.68 2 0 2 C0 1.34 0 0.68 0 0 Z " fill="#3C6CB4" transform="translate(669,511)"/>
<path d="M0 0 C0.33 0.66 0.66 1.32 1 2 C-0.25 5.0625 -0.25 5.0625 -2 8 C-2.99 8.33 -3.98 8.66 -5 9 C-5 8.34 -5 7.68 -5 7 C-4.34 7 -3.68 7 -3 7 C-3 5.68 -3 4.36 -3 3 C-2.34 3 -1.68 3 -1 3 C-0.67 2.01 -0.34 1.02 0 0 Z " fill="#C0E5D8" transform="translate(728,425)"/>
<path d="M0 0 C0.33 0.66 0.66 1.32 1 2 C0.34 2 -0.32 2 -1 2 C-1 3.32 -1 4.64 -1 6 C-2.65 6.33 -4.3 6.66 -6 7 C-6 6.34 -6 5.68 -6 5 C-5.34 5 -4.68 5 -4 5 C-4 4.34 -4 3.68 -4 3 C-3.34 3 -2.68 3 -2 3 C-2 2.34 -2 1.68 -2 1 C-1.34 0.67 -0.68 0.34 0 0 Z " fill="#CAD7E5" transform="translate(419,408)"/>
<path d="M0 0 C0.99 0.33 1.98 0.66 3 1 C3 2.32 3 3.64 3 5 C3.66 5 4.32 5 5 5 C5 6.65 5 8.3 5 10 C1.55783328 7.3401439 1.00495326 4.09711714 0 0 Z " fill="#4FAC88" transform="translate(646,393)"/>
<path d="M0 0 C0.33 0 0.66 0 1 0 C1.22036864 3.85645121 0.60355101 6.49223216 -1 10 C-1.33 10 -1.66 10 -2 10 C-2.33 7.69 -2.66 5.38 -3 3 C-2.01 3 -1.02 3 0 3 C0 2.01 0 1.02 0 0 Z " fill="#BEEADB" transform="translate(649,359)"/>
</svg>